<?xml version="1.0" encoding="UTF-8" standalone="no"?>
<!DOCTYPE svg PUBLIC "-//W3C//DTD SVG 1.1//EN" "http://www.w3.org/Graphics/SVG/1.1/DTD/svg11.dtd">
<svg xmlns="http://www.w3.org/2000/svg">
<metadata>
This is a custom SVG webfont generated by Font Squirrel.
Copyright   : c COPYRIGHT H BERTHOLD AG 1992 Alle Rechte vorbehalten
Foundry     : COPYRIGHT H BERTHOLD AG Alle Rechte vorbehalten
</metadata>
<defs>
<font id="CorporateEBQMedium" horiz-adv-x="1110">
<font-face units-per-em="2048" ascent="1638" descent="-410"/>
<missing-glyph horiz-adv-x="555"/>
<glyph unicode=" " horiz-adv-x="555"/>
<glyph unicode="	" horiz-adv-x="555"/>
<glyph unicode=" " horiz-adv-x="555"/>
<glyph unicode="!" horiz-adv-x="479" d="M119 0v242h243v-242h-243zM121 1411h237l-26 -995h-189z"/>
<glyph unicode="&quot;" horiz-adv-x="811" d="M109 1391q-4 43 0 65q8 37 39.5 57.5t70.5 20.5q33 0 60.5 -17.5t35.5 -46.5q8 -33 4 -55l-83 -526h-48zM494 1391q-6 43 0 65q8 37 38.5 57.5t69.5 20.5q33 0 61.5 -17.5t37 -46t1.5 -55.5l-81 -526h-48z"/>
<glyph unicode="#" horiz-adv-x="1193" d="M0 471v158h305l33 219h-289v158h309l64 438h164l-62 -438h226l63 438h160l-60 -438h283v-158h-305l-33 -219h287v-158h-307l-68 -471h-164l68 471h-228l-65 -471h-168l70 471h-283zM469 629h227l31 219h-227z"/>
<glyph unicode="$" d="M86 0v471h154q0 -63 10 -100q35 -152 192 -213q14 -6 64 -17l-2 525q-227 96 -301 170q-100 100 -101 254q0 129 69 221t191 129q49 14 144 22v164h108v-164q68 -12 113 -35.5t94 -70.5v96h140v-414h-134q-16 94 -22 113q-45 119 -191 156v-451q106 -45 158 -70 q49 -25 82 -45t80 -66t72.5 -116t25.5 -162q0 -137 -67.5 -241.5t-194.5 -145.5q-72 -25 -156 -24v-189h-108l-2 193q-88 12 -143.5 38.5t-120.5 88.5v-117h-154zM303 1114q0 -47 23 -86q20 -37 59 -63.5t121 -61.5l-2 408q-45 -6 -68 -15q-27 -8 -52.5 -24.5t-53 -59.5 t-27.5 -98zM614 139q82 12 131.5 61.5t59.5 90.5t10 84q0 66 -27 110q-16 33 -49.5 59.5t-54 38t-70.5 33.5v-477z"/>
<glyph unicode="%" horiz-adv-x="1376" d="M51 1110q2 135 83 241.5t214 106.5q66 0 123 -31q82 -43 125 -133t43 -190q0 -68 -18 -125q-31 -98 -101.5 -158.5t-169.5 -60.5q-61 0 -123 28q-86 43 -131 132.5t-45 189.5zM190 0l844 1446h154l-844 -1446h-154zM203 1114q-2 -78 34.5 -149.5t110.5 -71.5q41 0 70 22 q70 53 69 195q0 78 -34.5 146.5t-108.5 68.5q-72 0 -105.5 -66.5t-35.5 -144.5zM737 340q0 68 23 131q33 94 104.5 154.5t167.5 60.5q68 0 131 -35q82 -45 121 -132t39 -187q0 -57 -12 -105q-6 -29 -21.5 -60.5t-45.5 -75.5t-84 -72.5t-124 -28.5q-137 0 -218 105.5 t-81 244.5zM889 342q-2 -80 33.5 -151.5t111.5 -69.5q51 0 84 40t44.5 86t11.5 93q0 78 -35 146.5t-109 66.5q-72 0 -106.5 -66.5t-34.5 -144.5z"/>
<glyph unicode="&amp;" horiz-adv-x="1216" d="M33 358q0 94 30 166q10 27 26.5 53.5t31 47t35 43t35 38t34 33t29.5 25.5l26 20q15 12 17 15q-55 76 -74.5 105.5t-45 94t-25.5 127.5q0 137 96 220.5t235 83.5q209 0 287 -158q31 -61 31 -137q0 -139 -113 -261q-43 -47 -102 -94l260 -360l20 37q33 76 43 272h271v-141 l-127 -2q-10 -135 -43 -221q-16 -39 -33 -64q-2 -6 -10.5 -14t-10.5 -15l84 -125h154v-147h-313l-74 104q-80 -70 -157 -97t-187 -27q-90 0 -172 24q-82 27 -138.5 74t-80 102.5t-31.5 96t-8 81.5zM252 377q0 -104 66.5 -167t170.5 -60q96 0 175 55q25 18 45 39l-297 403 q-41 -31 -50 -39q-110 -102 -110 -231zM365 1145q0 -72 102 -205q2 2 15.5 12.5t19.5 16.5q70 61 92 116q12 29 12 66q0 53 -33.5 84t-87.5 31q-51 0 -85.5 -35t-34.5 -86z"/>
<glyph unicode="'" horiz-adv-x="425" d="M109 1391q-4 43 0 65q8 37 39.5 57.5t70.5 20.5q33 0 60.5 -17.5t35.5 -46.5q8 -33 4 -55l-83 -526h-48z"/>
<glyph unicode="(" horiz-adv-x="575" d="M121 510q0 442 143 747q47 96 119 193h168q-80 -131 -119 -227q-111 -285 -110 -715q0 -412 106 -696q43 -115 123 -238h-168q-78 109 -117 193q-145 303 -145 743z"/>
<glyph unicode=")" horiz-adv-x="575" d="M25 -426q170 248 213 651q16 152 16 287q0 432 -117 727q-41 104 -112 211h168q47 -63 79 -119q133 -231 172 -610q12 -135 13 -207q0 -51 -15 -223q-39 -373 -174 -606q-29 -47 -75 -111h-168z"/>
<glyph unicode="*" horiz-adv-x="1087" d="M227 1137l37 112l221 -71v233h117v-233l223 71l35 -112l-221 -72l137 -188l-94 -68l-137 188l-137 -188l-97 68l138 188z"/>
<glyph unicode="+" d="M84 633v168h381v385h180v-385h379v-168h-379v-389h-180v389h-381z"/>
<glyph unicode="," horiz-adv-x="468" d="M45 -279l207 279h-154v276h277v-276l-178 -279h-152z"/>
<glyph unicode="-" horiz-adv-x="458" d="M2 500v116h455v-116h-455z"/>
<glyph unicode="." horiz-adv-x="479" d="M100 0v276h279v-276h-279z"/>
<glyph unicode="/" horiz-adv-x="821" d="M-121 -311l772 1757h156l-770 -1757h-158z"/>
<glyph unicode="0" d="M66 707q0 424 194 610q117 113 297 113q233 0 363 -199q125 -195 124 -526q0 -186 -40 -334q-8 -35 -22.5 -71t-46.5 -97.5t-88 -112.5t-128 -79.5t-166 -28.5q-139 0 -242 69q-245 167 -245 656zM293 705q0 -135 18 -263q27 -145 70 -209q63 -94 174 -94q92 0 154 70 q109 125 108 487q0 127 -18 275q-25 139 -70 205q-59 94 -176 94q-158 0 -217 -191q-43 -134 -43 -374z"/>
<glyph unicode="1" d="M223 1040l2 125q63 0 107 13q156 41 198 247h166v-1271h191v-154h-617v154h199v886h-246z"/>
<glyph unicode="2" d="M100 0v180q211 205 377 420q59 74 111 154q123 182 123 299q0 90 -58.5 143t-148.5 53q-86 0 -157 -58t-77 -202h-157q0 92 24 168q35 104 130 188.5t274 84.5q233 0 340 -160q57 -88 57 -195q0 -156 -158 -381q-129 -178 -327 -389q-37 -39 -115 -117h496v185h157v-373 h-891z"/>
<glyph unicode="3" d="M84 403l178 -2q4 -68 19 -104q23 -53 78 -99t149 -46q57 0 108 22q72 31 111 99.5t39 150.5q0 78 -33 133q-66 121 -270 121h-74v166q205 -8 279 84q47 55 47 137q0 88 -55.5 143.5t-143.5 55.5q-27 0 -57.5 -7.5t-72.5 -38t-64 -81.5q-14 -35 -25 -99h-172q2 74 27 142 q45 121 150.5 185.5t240.5 64.5q80 0 153 -25q111 -37 174.5 -124t63.5 -202q0 -158 -117 -258q-29 -27 -80 -51q82 -33 92 -39q164 -102 164 -309q0 -98 -35 -178q-18 -43 -48.5 -83t-82 -83t-130.5 -69.5t-175 -26.5q-57 0 -139 16q-209 53 -277 242q-22 65 -22 163z"/>
<glyph unicode="4" d="M41 379v166l557 880h205v-878h217v-168h-217v-225h143v-154h-512v154h152v225h-545zM221 547h365v303q0 66 4 192l6 166q-86 -172 -121 -233q-23 -43 -72 -125z"/>
<glyph unicode="5" d="M121 379h164q12 -127 83.5 -179.5t149.5 -52.5q68 0 125 35q143 84 143 299q0 55 -12 109q-6 27 -18.5 54.5t-39 66.5t-74.5 62.5t-110 23.5q-141 0 -251 -146l-150 25l111 735h706l-35 -188h-538l-47 -349q121 88 264 89q104 0 192 -43q115 -55 172.5 -167t57.5 -247 q0 -272 -185 -424q-121 -100 -294 -100q-88 0 -158 24q-115 39 -172.5 118t-73.5 150q-10 39 -10 105z"/>
<glyph unicode="6" d="M100 485q0 260 226 596q125 190 282 363l219 -2q-213 -244 -354 -475q45 16 111 16q133 0 233 -72q74 -53 129 -156.5t55 -256.5q0 -193 -98 -332q-133 -184 -354 -184q-92 0 -174 34q-133 59 -204 188t-71 281zM326 483q0 -225 112 -307q49 -37 115 -37q84 0 137 61.5 t69.5 132t16.5 150.5q0 209 -94 295q-51 49 -131 49q-63 0 -113 -34q-112 -81 -112 -310z"/>
<glyph unicode="7" d="M115 1018v393h886v-184l-622 -1227h-227l649 1200h-529v-182h-157z"/>
<glyph unicode="8" d="M100 420q0 193 138 285q33 23 71 36q-37 16 -76 47q-104 90 -104 254q0 104 41 181q106 207 385 207q158 0 268 -76q158 -106 158 -314q0 -170 -113 -258q-10 -8 -67 -41q31 -10 71 -36q137 -92 138 -289q0 -88 -29 -166q-16 -45 -45 -86t-78 -85t-127 -70.5t-176 -26.5 q-119 0 -205 36q-121 51 -186.5 159t-63.5 243zM330 412q-2 -25 1 -59t25.5 -89t65.5 -86q53 -43 135 -43q61 0 109 27q115 61 114 235q0 115 -55 188.5t-166 73.5q-92 0 -149 -49q-35 -31 -56 -78q-22 -61 -24 -120zM358 1032q2 -125 61.5 -175t135.5 -50q98 0 146.5 64.5 t48.5 166.5q-2 104 -49.5 171t-147.5 67q-47 0 -82 -16q-115 -54 -113 -228z"/>
<glyph unicode="9" d="M106 913q0 188 101 332q127 184 352 185q168 0 289 -111q162 -145 162 -393q0 -274 -262 -647q-82 -121 -185 -242q-10 -12 -30.5 -34.5t-30.5 -35.5h-219q223 260 354 475q-57 -14 -111 -14q-152 0 -254 88q-166 141 -166 397zM332 926q0 -213 102 -299q51 -45 125 -45 q63 0 111 34q113 80 112 312q0 201 -90 289q-53 53 -137 53q-63 0 -106 -31q-117 -84 -117 -313z"/>
<glyph unicode=":" horiz-adv-x="479" d="M100 0v276h279v-276h-279zM100 643v277h279v-277h-279z"/>
<glyph unicode=";" horiz-adv-x="468" d="M45 -279l207 279h-154v276h277v-276l-178 -279h-152zM100 643v277h283v-277h-283z"/>
<glyph unicode="&lt;" horiz-adv-x="1024" d="M0 635v176l1024 496v-179l-821 -405l821 -406v-178z"/>
<glyph unicode="=" d="M84 467v158h940v-158h-940zM84 805v158h940v-158h-940z"/>
<glyph unicode="&gt;" horiz-adv-x="1024" d="M0 139v178l821 406l-821 405v179l1024 -496v-176z"/>
<glyph unicode="?" horiz-adv-x="874" d="M63 1042q10 129 37 185q47 100 147.5 152.5t217.5 52.5q152 -2 252 -84t100 -230q0 -66 -22 -123q-16 -45 -51 -91t-62 -72.5t-78 -71.5q-72 -70 -84 -86q-31 -41 -41 -85t-10 -138v-35h-203q-2 4 -2 37.5t2 84t8.5 85t22.5 69.5q8 20 22.5 44t26.5 40.5t37 43t34 35.5 l38 38l32 33q94 94 95 180q0 61 -43 97t-105 36q-47 0 -92 -22q-84 -45 -96 -175h-183zM262 0v242h244v-242h-244z"/>
<glyph unicode="@" horiz-adv-x="1835" d="M141 498q0 160 58 325q98 279 323.5 457t509.5 178q147 0 275 -53q184 -80 284.5 -249t100.5 -376q0 -145 -53.5 -287.5t-153.5 -242.5q-115 -115 -232 -113q-39 0 -70.5 13.5t-49 34t-27.5 38t-14 35.5q-6 29 -7 61q-14 -27 -45 -61q-96 -115 -227 -115q-72 0 -135 41 q-137 92 -137 314q0 180 90 329q59 104 155.5 178t206.5 74q119 0 185 -92q16 -23 34 -69l25 104h135l-67 -313q-6 -33 -24.5 -116t-27.5 -128q-20 -96 -20 -141q0 -74 57 -74q74 0 154 106q139 180 139 426q0 221 -123 375q-162 203 -430 203q-88 0 -166 -23 q-279 -74 -434 -358q-129 -240 -129 -490q4 -362 268 -532q166 -109 406 -109q332 0 573 203q29 23 80 78l62 -78q-45 -45 -70 -67q-51 -43 -109 -80q-248 -158 -557 -158q-133 0 -262 33q-313 78 -456 332q-95 170 -95 387zM713 442q0 -125 65 -168q35 -20 74 -20 q131 0 221 201q35 80 61.5 190.5t22.5 181.5q-4 68 -42 115t-103 47q-18 0 -62 -14q-66 -29 -125 -131q-112 -201 -112 -402z"/>
<glyph unicode="A" horiz-adv-x="1472" d="M12 0v160h181l430 1296h237l414 -1296h184v-160h-584v160h158l-88 284h-483l-92 -284h157v-160h-514zM508 608h389l-86 297q-4 16 -49 182q-33 119 -47 179q-41 -158 -107 -361z"/>
<glyph unicode="B" horiz-adv-x="1259" d="M55 0v158h181v1130h-181v158h437h200q272 -10 371 -156q57 -84 57 -205q0 -164 -112 -249q-41 -31 -115 -60q78 -20 115 -41q88 -49 135 -132t47 -185q0 -150 -92 -262q-88 -106 -250 -138q-88 -18 -340 -18h-453zM467 168h192q205 0 265 133q25 55 24 119 q0 150 -110 215q-47 27 -96.5 33t-170.5 6h-104v-506zM467 840h106q72 0 112 3t93 28.5t80 76.5q29 53 29 115q0 80 -39 135q-29 41 -86 60.5t-89 20.5t-106 1h-100v-440z"/>
<glyph unicode="C" horiz-adv-x="1300" d="M74 719q0 420 233 620q160 137 385 138q158 0 271 -64q39 -18 86 -59v92h165v-445h-165q-18 143 -72 205q-92 102 -250 103q-193 0 -297 -144q-109 -154 -108 -442q0 -356 159 -502q90 -84 226 -84q74 0 133 25.5t94 64.5t54.5 72t29.5 66q20 57 29 147h176 q-2 -55 -5.5 -86t-19.5 -103.5t-59 -136t-111 -114.5q-135 -102 -336 -103q-217 0 -370 119q-57 43 -107 111q-141 196 -141 520z"/>
<glyph unicode="D" horiz-adv-x="1376" d="M59 0v158h181v1130h-181v158h447h180q57 -4 100 -11.5t118 -30t143.5 -76.5t123.5 -136q129 -193 129 -469q0 -233 -85 -389t-195 -232q-70 -45 -137 -65q-20 -6 -41 -11.5t-43.5 -9.5t-39 -7t-44 -5t-39.5 -3t-43 -1h-41h-44h-42h-447zM471 168h92q68 0 103 2 q154 8 245 96q154 145 154 459q0 35 -1 60.5t-13.5 104.5t-36 137t-76.5 122.5t-127 95.5q-84 35 -248 35h-92v-1112z"/>
<glyph unicode="E" horiz-adv-x="1163" d="M59 0v158h181v1130h-181v158h1020v-352h-164v186h-444v-438h469v-168h-469v-506h463v233h164v-401h-1039z"/>
<glyph unicode="F" d="M59 0v158h181v1130h-181v158h1020v-352h-161v186h-447v-438h469v-168h-469v-516h223v-158h-635z"/>
<glyph unicode="G" horiz-adv-x="1396" d="M74 721q0 473 286 659q143 96 334 97q201 0 353 -123v92h165v-445h-165q-6 86 -31 136q-31 68 -102.5 120t-192.5 52q-203 0 -305 -160q-98 -152 -99 -440q0 -295 112 -433.5t290 -138.5q131 0 242 64l55 37v301h-168v157h534v-157h-145v-371q-55 -51 -90 -72 q-193 -127 -430 -127q-260 0 -424 146q-219 190 -219 606z"/>
<glyph unicode="H" horiz-adv-x="1503" d="M57 0v158h181v1130h-181v158h584v-158h-180v-444h581v444h-180v158h584v-158h-180v-1130h180v-158h-584v158h180v522h-581v-522h180v-158h-584z"/>
<glyph unicode="I" horiz-adv-x="714" d="M59 0v158h181v1130h-181v158h596v-158h-180v-1130h180v-158h-596z"/>
<glyph unicode="J" horiz-adv-x="735" d="M2 -59h41q172 0 211 110q16 49 16 279v958h-180v158h594v-158h-180v-960v-85q0 -22 -3 -81.5t-10.5 -86t-21.5 -74.5t-35.5 -75.5t-55.5 -58.5t-77 -51q-96 -43 -209 -43q-14 0 -28.5 1t-33 3t-28.5 2v162z"/>
<glyph unicode="K" horiz-adv-x="1439" d="M57 0v158h183v1130h-183v158h566v-158h-166v-532l508 532h-136v158h527v-158h-182l-379 -409l442 -721h176v-158h-575v158h127l-316 585l-203 -213v-372h168v-158h-557z"/>
<glyph unicode="L" horiz-adv-x="1130" d="M61 0v158h181v1130h-181v158h592v-158h-180v-1120h463v231h170v-399h-1045z"/>
<glyph unicode="M" horiz-adv-x="1855" d="M59 0v158h181v1130h-181v158h516l175 -541q61 -188 165 -592q6 20 17.5 61.5t17.5 61.5q23 86 60 207q57 180 90 270l188 533h508v-158h-180v-1130h180v-158h-588v158h181v544q0 188 4 566q-12 -37 -109 -328q-45 -135 -102 -303l-205 -604h-182l-189 600 q-131 414 -196 618v-1093h180v-158h-531z"/>
<glyph unicode="N" horiz-adv-x="1503" d="M59 0v158h181v1130h-181v158h445l299 -535q90 -162 301 -569q0 82 -1 246t-1 248v452h-180v158h528v-158h-180v-1288h-213l-324 584q-61 113 -174 324.5t-153 287.5q4 -178 4 -534v-504h180v-158h-531z"/>
<glyph unicode="O" horiz-adv-x="1409" d="M76 723q0 322 147 522q66 88 154 144q139 88 328 88q285 0 456 -201q170 -201 170 -553q0 -41 -2 -80t-17.5 -125t-42 -157.5t-84 -152.5t-136.5 -136q-152 -102 -347 -103q-170 0 -307 78q-90 51 -154.5 134t-95 158t-48 166t-19.5 132t-2 86zM324 723q0 -254 77 -401 q27 -49 82 -105q96 -80 222 -80q115 0 210 72q170 139 170 514q0 262 -84 410q-35 61 -86 104q-86 72 -213 72q-193 0 -292 -170q-86 -146 -86 -416z"/>
<glyph unicode="P" horiz-adv-x="1173" d="M55 0v158h181v1130h-181v158h498q96 0 143 -2q254 -8 369 -174q76 -109 76 -254q0 -106 -44 -202.5t-128 -154.5q-57 -39 -131 -58t-124 -22.5t-143 -3.5h-102v-417h201v-158h-615zM469 741h94q119 0 168 13q170 45 170 256q0 162 -94 225q-10 8 -22.5 13t-22.5 10.5 t-25.5 8.5t-25 5t-26.5 4t-23.5 3t-26.5 1h-25h-25h-24h-92v-539z"/>
<glyph unicode="Q" horiz-adv-x="1409" d="M76 725q0 330 155 530q55 78 146 134q139 88 328 88q285 0 452 -199q174 -201 174 -549q0 -215 -57 -367q-4 -10 -31 -69l268 -293h-280l-109 127q-195 -158 -417 -158q-281 0 -451 195q-178 203 -178 561zM324 723q0 -254 77 -401q27 -49 82 -105q96 -80 222 -80 q115 0 210 72q170 139 170 514q0 262 -84 410q-35 61 -86 104q-86 72 -213 72q-193 0 -292 -170q-86 -146 -86 -416z"/>
<glyph unicode="R" horiz-adv-x="1343" d="M61 0v158h181v1130h-181v158h488q162 0 242 -6q233 -23 337 -178q63 -98 64 -230q0 -215 -164 -330q-41 -27 -98 -45l229 -499h170v-158h-360l-246 627h-258v-469h168v-158h-572zM473 797h127q57 0 88 2q170 0 234 108q33 51 32 131q0 147 -106 207q-43 23 -91 29t-157 6 h-127v-483z"/>
<glyph unicode="S" horiz-adv-x="1067" d="M53 1094q0 90 35 161q51 109 157.5 164.5t233.5 55.5q166 0 277 -91q27 -20 39 -38v100h139v-408h-133q-6 68 -27 113q-27 59 -90 106.5t-170 47.5q-96 0 -162.5 -49.5t-66.5 -141.5q0 -49 18 -82q12 -18 29.5 -35.5t47.5 -35t44 -24.5t53 -24.5t41 -19.5q29 -12 85 -39 t85 -39q109 -53 141 -76q178 -123 179 -338q0 -92 -29 -170q-23 -57 -65 -110t-136 -101.5t-215 -48.5q-96 0 -173 27t-111.5 54.5t-75.5 70.5v-123h-137v465l137 -2q8 -113 47 -174q90 -143 293 -144q45 0 84 11q57 16 107 67t50 150q0 66 -30 114q-23 33 -61 60.5 t-58.5 37t-75.5 33.5q-51 23 -149 68q-94 41 -140 68q-217 119 -217 340z"/>
<glyph unicode="T" horiz-adv-x="1193" d="M20 1053v393h1154v-393h-168v227h-293v-1122h182v-158h-594v158h182v1122h-293v-227h-170z"/>
<glyph unicode="U" horiz-adv-x="1472" d="M47 1288v158h594v-158h-180v-688q0 -82 2 -121q4 -135 39 -200q71 -137 258 -138h6q168 0 248 109q33 41 47 110q12 53 12 224v704h-180v158h532v-158h-180v-708q0 -106 -2 -151.5t-21.5 -122.5t-60.5 -138q-51 -78 -156.5 -138.5t-265.5 -60.5q-123 0 -238.5 45 t-183.5 138q-20 29 -36.5 57.5t-25.5 68t-15.5 59t-9.5 72t-3 61.5v73v65v680h-180z"/>
<glyph unicode="V" horiz-adv-x="1462" d="M8 1288v158h582v-158h-160l330 -1044l338 1044h-156v158h512v-158h-180l-428 -1296h-240l-418 1296h-180z"/>
<glyph unicode="W" horiz-adv-x="1908" d="M8 1288v158h580v-158h-174l96 -467q35 -162 61 -325q23 -133 35 -217q86 418 137 622l138 545h194l129 -545q33 -137 133 -620q92 451 113 540l104 467h-172v158h519v-158h-181l-295 -1292h-221l-127 551q-27 119 -121 598l-57 -258q-49 -221 -78 -340l-131 -551h-219 l-281 1292h-182z"/>
<glyph unicode="X" horiz-adv-x="1366" d="M18 0v160h185l364 585l-288 543h-193v158h371l256 -524l209 366h-140v158h525v-158h-183l-325 -520l338 -608h194v-160h-395l-281 596l-249 -436h155v-160h-543z"/>
<glyph unicode="Y" horiz-adv-x="1290" d="M0 1288v158h600v-158h-156l230 -497l235 497h-153v158h534v-158h-194l-338 -688v-442h180v-158h-592v158h180v436l-342 694h-184z"/>
<glyph unicode="Z" horiz-adv-x="1044" d="M41 0v147l657 1133h-460v-188h-168v354h907v-148l-658 -1130h504v223h168v-391h-950z"/>
<glyph unicode="[" horiz-adv-x="575" d="M154 -422v1868h391v-176h-197v-1514h197v-178h-391z"/>
<glyph unicode="\" horiz-adv-x="724" d="M53 1446h164l455 -1446h-164z"/>
<glyph unicode="]" horiz-adv-x="575" d="M31 -246h196v1516h-196v176h391v-1868h-391v176z"/>
<glyph unicode="^" horiz-adv-x="1492" d="M291 688l385 758h158l368 -758h-198l-254 533l-263 -533h-196z"/>
<glyph unicode="_" horiz-adv-x="1024" d="M-20 -281h1064v-161h-1064v161z"/>
<glyph unicode="`" horiz-adv-x="555" d="M-276 1446h272l274 -266h-231z"/>
<glyph unicode="a" horiz-adv-x="1056" d="M57 270q0 100 60 183q18 27 40.5 49t53.5 40.5t52.5 33t63.5 28.5t60.5 21.5t68.5 18.5t62 14.5t65.5 14.5t57.5 11v31q0 74 -8 98q-31 80 -160 80q-123 0 -172 -64q-27 -33 -39 -135h-158l23 209q25 25 39 35q125 109 321 109q143 0 229.5 -51.5t119.5 -127.5 q18 -45 22 -98q2 -53 2 -156v-467h152v-147h-353v145q-27 -45 -67 -86q-90 -82 -225 -82q-186 0 -271 148q-39 63 -39 145zM283 297q0 -68 42 -109t109 -41q61 0 117 35q14 10 26.5 21.5t21.5 20.5t16.5 26.5t11.5 26t7 29t5 27.5t3 31.5t1 28.5v32v30v98q-90 -23 -143 -41 q-217 -68 -217 -215z"/>
<glyph unicode="b" horiz-adv-x="1173" d="M31 1307v145h360v-584q35 63 82 105q86 74 205 74q96 0 178 -46q119 -66 180.5 -202.5t61.5 -286.5q0 -90 -23 -178q-41 -154 -145.5 -255.5t-253.5 -101.5q-115 0 -201 74q-37 31 -59 66q-12 18 -23 39l-10 -156h-195v1307h-157zM406 512q0 -184 61 -283q63 -98 174 -98 q68 0 121 41q111 84 110 340q0 195 -59 285q-70 96 -174 96q-125 0 -186 -123q-47 -94 -47 -258z"/>
<glyph unicode="c" horiz-adv-x="980" d="M76 498q0 147 55 277t168 204q102 68 219 68q96 0 172 -50q25 -16 58 -55v88h155v-352h-155q-14 115 -73 163t-128 48q-76 0 -131 -49q-104 -94 -105 -342v-37q0 -164 64.5 -244t163.5 -80q45 0 81.5 18.5t55 38t34 54.5t17.5 46t8 36h185q-18 -168 -121 -260.5 t-271 -92.5q-172 0 -284 101q-168 144 -168 420z"/>
<glyph unicode="d" horiz-adv-x="1193" d="M78 512q0 100 22 182q41 152 145.5 252.5t254.5 100.5q111 0 194 -68q35 -29 58 -59q12 -18 32 -52v439h-157v145h362v-1305h156v-147h-361v156q-35 -63 -82 -105q-86 -74 -204 -74q-96 0 -181 48q-119 66 -179 201.5t-60 285.5zM301 512q0 -188 61 -283q66 -98 175 -98 q131 4 188 127q45 94 45 254q0 193 -68 291q-61 90 -167 90q-72 0 -123 -43q-111 -88 -111 -338z"/>
<glyph unicode="e" horiz-adv-x="1056" d="M74 508q0 115 24 192q45 160 161 253.5t278 93.5q106 0 202 -48q205 -100 238 -385q6 -43 6 -86q0 -8 -1 -24.5t-1 -22.5l-670 -2v-21q0 -44 6 -96q35 -231 234 -231q131 2 186 98q20 45 29 93h205q-6 -127 -94 -218q-123 -127 -330 -127q-176 0 -297 105 q-176 147 -176 426zM313 623h426q2 162 -67 225q-55 45 -131 45q-86 0 -144 -57q-70 -72 -84 -213z"/>
<glyph unicode="f" horiz-adv-x="714" d="M59 0v147h158v723h-154v154h154v84v70q8 174 123 243q76 47 182 47q92 0 189 -43v-176q-86 57 -154 58q-63 0 -96 -50q-23 -35 -23 -155v-78h242v-154h-242v-723h187v-147h-566z"/>
<glyph unicode="g" horiz-adv-x="1034" d="M29 -135q2 115 94 184q43 31 135 60q-8 4 -24 9l-21 7q-76 33 -76 104q0 109 201 154q-78 33 -122 68.5t-75 99.5q-31 68 -30 137q0 86 42 160t113 117q98 59 291 59h444v-133h-217q20 -16 29 -25q76 -76 76 -196q0 -139 -96 -217q-14 -12 -33 -22.5t-42.5 -20 t-39.5 -15.5t-47 -14t-41 -11t-44 -11.5t-38 -8.5q-66 -16 -76 -20q-66 -20 -65 -64l8 -26q6 -8 17 -14.5t20.5 -9.5t28 -6t29.5 -4t38 -3t39 -4l22 -2q23 -4 55.5 -9.5t70.5 -12.5t79 -18.5t68 -25.5q139 -68 139 -227q0 -147 -96 -234q-119 -111 -374 -110h-9 q-223 0 -340 71q-53 33 -90 88q-43 66 -43 146zM283 -240q70 -49 229 -49q96 0 162 25q115 47 114 145q0 49 -29.5 83t-77.5 49.5t-91 21.5t-88 6q-135 0 -211 -46q-74 -45 -74 -118q0 -70 66 -117zM313 690q0 -68 31 -110q51 -76 158 -76q47 0 88 20q96 45 96 168 q0 82 -50 132q-48 48 -126 49q-3 0 -6 -1q-82 0 -136.5 -50t-54.5 -132z"/>
<glyph unicode="h" horiz-adv-x="1236" d="M55 0v147h158v1160h-158v145h379v-569q102 164 287 164q55 0 108 -17q170 -47 203 -211q8 -45 8 -233v-439h158v-147h-516v147h137v521q0 125 -76 168q-45 25 -98 24q-78 0 -137 -53q-35 -31 -52.5 -78t-19.5 -80t-2 -92v-410h137v-147h-516z"/>
<glyph unicode="i" horiz-adv-x="641" d="M57 0v147h156v732h-156v145h379v-877h158v-147h-537zM178 1219v217h254v-217h-254z"/>
<glyph unicode="j" horiz-adv-x="661" d="M-2 -311q61 0 119 18q20 6 37.5 17.5t30 21.5t21.5 27.5t15 28t11.5 34t7.5 33.5t3 36.5t1 35.5v36v35v867h-156v145h379v-877v-57v-53v-44q0 -32 -1 -43t-3 -36t-4 -36t-5 -29.5t-8.5 -33t-11.5 -28.5q-37 -92 -131 -160.5t-262 -68.5q-29 0 -43 2v129zM209 1219v217 h254v-217h-254z"/>
<glyph unicode="k" horiz-adv-x="1216" d="M59 0v147h158v1160h-158v145h375v-917l336 344h-131v145h485v-145h-147l-225 -244l301 -488h137v-147h-322l-278 498l-160 -176v-175h145v-147h-516z"/>
<glyph unicode="l" horiz-adv-x="641" d="M55 0v147h158v1160h-158v145h381v-1305h158v-147h-539z"/>
<glyph unicode="m" horiz-adv-x="1781" d="M59 0v147h156v732h-156v145h363v-162q23 37 37 56.5t49 55.5t87 54.5t120 18.5q168 0 250 -117q20 -35 28 -56q20 41 47 74q86 98 240 99q98 0 176 -46.5t109 -136.5q16 -47 16 -137v-580h158v-147h-492v147h115v457q0 12 -1 36t-1 36q0 125 -80 164q-39 20 -88 20 q-72 0 -115 -39q-14 -10 -24.5 -24.5t-17.5 -25.5t-12 -30.5t-8 -27.5t-4 -33t-1 -30v-33v-31v-439h114v-147h-450v147h114v433v49v44q0 13 -1 34.5t-3 33t-7 25.5t-11 27q-16 27 -43 43q-39 25 -94 24q-70 0 -119 -37q-37 -29 -54.5 -77t-18.5 -76.5t-1 -94.5v-428h115 v-147h-492z"/>
<glyph unicode="n" horiz-adv-x="1216" d="M57 0v147h156v732h-156v145h365v-170q16 35 45 72q92 121 248 121q188 0 268 -154q8 -16 14.5 -31.5t10.5 -37t6 -33t3 -42t1 -43.5v-58v-62v-439h158v-147h-494v147h115v449q0 150 -21 192q-14 25 -43 46q-41 27 -92 26q-113 0 -170 -94q-35 -59 -35 -201v-418h113v-147 h-492z"/>
<glyph unicode="o" horiz-adv-x="1097" d="M74 512q0 348 243 479q111 57 232 58q104 0 203 -43q272 -123 272 -494q0 -342 -236 -473q-115 -63 -239 -64q-45 0 -98.5 11.5t-122 41t-129 98.5t-93.5 165q-32 98 -32 221zM315 514q0 -244 103 -334q55 -47 131 -47q133 0 190 123q43 94 43 260q0 162 -41 252 q-10 27 -28.5 51.5t-63.5 50t-100 25.5q-129 0 -191 -125q-43 -90 -43 -256z"/>
<glyph unicode="p" horiz-adv-x="1206" d="M59 -281h158v1160h-158v145h363v-156q29 53 65 88q90 90 220 91q106 0 200 -60q111 -72 165 -202t54 -273q0 -98 -22 -180q-41 -154 -145.5 -254.5t-253.5 -100.5q-115 0 -203 76q-31 29 -49 53q-12 16 -31 50v-437h164v-147h-527v147zM436 512q0 -197 66 -291 q61 -90 168 -90q74 6 114 37q119 82 119 344q0 190 -61 285q-57 96 -172 96q-129 0 -191 -127q-43 -90 -43 -254z"/>
<glyph unicode="q" horiz-adv-x="1206" d="M78 512q0 90 22 178q39 154 143.5 255.5t256.5 101.5q119 0 205 -76q45 -45 55 -60l24 -43v156h361v-145h-156v-1160h156v-147h-524v147h163v437q-35 -66 -90 -111q-84 -68 -196 -68q-119 0 -217 74q-102 74 -152.5 199t-50.5 262zM303 512q0 -190 59 -283 q63 -98 175 -98q129 2 186 123q47 92 47 258q0 188 -59 281q-63 100 -176 100q-72 0 -125 -45q-107 -88 -107 -336z"/>
<glyph unicode="r" horiz-adv-x="864" d="M57 0v147h158v732h-158v145h365v-162l12 19q8 12 10 16q92 137 230 137q94 0 188 -73v-254l-145 2q0 20 -12 61q-18 94 -103 94q-51 0 -90 -39q-51 -51 -63.5 -131t-12.5 -260v-287h180v-147h-559z"/>
<glyph unicode="s" horiz-adv-x="894" d="M61 -2v358h144q12 -78 55 -133q72 -96 195 -96q84 0 123 44q37 42 37 86q0 37 -19 69q-12 16 -38 31.5t-45 23.5t-55 20.5t-42 14.5l-99 37q-53 20 -77 30q-168 78 -168 254q0 139 98 224.5t238 85.5q115 0 196 -64q10 -8 45 -47l6 94h146v-330h-148q-4 55 -16 88 q-49 111 -184 111q-82 0 -121 -41t-39 -88q0 -31 16 -53q27 -35 180 -90q115 -37 170 -64q178 -80 179 -256q0 -152 -103.5 -241t-255.5 -89q-139 0 -225 89q-18 18 -43 55l-4 -123h-146z"/>
<glyph unicode="t" horiz-adv-x="714" d="M43 870v154h147v303h224v-303h241v-154h-241v-448q0 -176 18 -213q27 -57 103 -57q53 0 127 34v-174q-92 -31 -181 -30q-250 0 -282 213q-8 45 -9 208v467h-147z"/>
<glyph unicode="u" horiz-adv-x="1226" d="M39 879v145h377v-655q0 -133 76 -179q41 -25 98 -24q63 0 129 39q41 31 60.5 83t21.5 83.5t2 103.5v404h-156v145h377v-877h158v-147h-357v172q-14 -25 -39 -63q-96 -131 -260 -132q-47 0 -88 11q-27 6 -53.5 17t-62 34.5t-66.5 64.5t-45 97q-16 59 -16 260v418h-156z "/>
<glyph unicode="v" horiz-adv-x="1150" d="M2 879v145h528v-145h-127l105 -316q61 -180 102 -348q18 59 52 174q10 29 28.5 87.5t28.5 86.5l106 316h-125v145h449v-145h-158l-315 -887h-189l-327 887h-158z"/>
<glyph unicode="w" horiz-adv-x="1642" d="M6 879v145h500v-145h-123l68 -299q29 -127 41 -191q12 -57 36 -168q66 291 105 432l102 371h226l98 -385q23 -84 57.5 -245t40.5 -183q8 33 21.5 93.5t19.5 86.5l43 184l74 304h-121v145h442v-145h-161l-230 -887h-225l-102 383q-23 86 -58 243.5l-45 202.5 q-18 -80 -55 -243q-6 -23 -15.5 -64t-17.5 -74.5t-16 -64.5l-105 -383h-221l-223 887h-156z"/>
<glyph unicode="x" horiz-adv-x="1163" d="M10 0v147h183l286 385l-227 347h-174v145h352l180 -330l129 193h-98v137h473v-145h-184l-248 -328l279 -404h190v-147h-375l-221 393l-170 -256h125v-137h-500z"/>
<glyph unicode="y" horiz-adv-x="1130" d="M-4 879v145h530v-145h-131l103 -306q49 -156 55 -174q6 -25 22.5 -86t24.5 -94q37 143 59 215q25 78 46 139l106 306h-127v145h453v-145h-160l-315 -897q-6 -18 -23 -60q-61 -172 -111 -231q-111 -137 -354 -137q-10 0 -31.5 1t-31.5 1v153q180 0 247 45q74 47 109 162 l14 45l-319 918h-166z"/>
<glyph unicode="z" horiz-adv-x="874" d="M29 131l495 739h-321v-153h-158v307h756v-133l-506 -735h377v182h162v-338h-803z"/>
<glyph unicode="{" horiz-adv-x="724" d="M141 506v12q53 12 84 43q10 10 19.5 23.5t15.5 31t11 30.5t7.5 37t4.5 34t3 36.5t1 32.5v33v29v344q0 252 178 315q43 14 203 25l-2 -12q-4 -2 -26 -8.5t-32 -10.5q-98 -33 -131 -131q-16 -51 -16 -192v-201v-41q0 -100 -1 -146.5t-11.5 -97.5t-30.5 -88 q-37 -61 -133 -94q113 -41 147 -123q6 -12 10 -24.5t7.5 -28t6.5 -26.5t4 -32.5t2 -33t1 -38.5v-40v-47v-51v-226q0 -98 7 -143t30 -88q18 -33 46.5 -54.5t51.5 -30.5t70 -24l-2 -12q-8 0 -48 2t-53.5 3t-47.5 6t-52.5 12.5t-43 19.5t-42.5 29q-43 39 -65.5 102.5t-24.5 104 t-2 120.5v265v88q0 186 -103 247q-25 13 -43 19z"/>
<glyph unicode="|" horiz-adv-x="468" d="M152 -512v2044h165v-2044h-165z"/>
<glyph unicode="}" horiz-adv-x="724" d="M59 -500q113 27 158 88q25 33 35 78q12 51 12 176v201v41q0 100 1 145t11.5 97.5t30.5 89.5q37 61 133 94q-78 29 -106 59q-37 37 -53.5 99.5t-17.5 103.5t-1 180v226q0 150 -24 206q-8 20 -19 37q-18 31 -47 50.5t-48.5 26.5t-64.5 22v12q6 0 41 -2t46.5 -3t41 -4 t45 -8.5t39 -12.5t42 -18t34.5 -26q43 -39 64.5 -102.5t23.5 -104.5t2 -121v-264q0 -115 2 -137q8 -131 90 -190q20 -12 54 -25v-12q-49 -12 -80 -41q-12 -12 -22.5 -29.5t-17.5 -32t-11 -39t-7.5 -39t-4.5 -42t-1 -37.5v-39v-33v-256q0 -18 -1 -55t-1 -54 q-12 -215 -145 -282q-16 -8 -31.5 -13.5t-28 -8.5t-35 -5t-35.5 -3t-48 -3t-56 -2v12z"/>
<glyph unicode="~" horiz-adv-x="1492" d="M254 594q123 174 272 172q76 0 228 -70l67 -30q94 -43 144 -43q57 0 127 55q31 23 45 41q4 6 10 13t10 13l4 5l78 -148q-4 -4 -11 -13t-11 -14q-66 -74 -148 -110q-55 -25 -111 -25q-74 2 -213 70l-51 25l-14 6q-12 6 -28.5 13t-37 14t-43 11.5t-43.5 4.5q-39 0 -73 -19 q-16 -8 -35 -24.5t-29 -27.5t-31.5 -36.5t-23.5 -30.5z"/>
<glyph unicode="¡" horiz-adv-x="479" d="M119 784v240h243v-240h-243zM121 -385l29 993h188l20 -993h-237z"/>
<glyph unicode="£" d="M84 647v164h160q33 311 59 395q20 68 55 119q96 143 281 143q82 0 142.5 -27.5t93 -73.5t48 -83t21.5 -74q6 -43 6 -69h-145q-14 96 -70 133q-35 20 -76 20q-94 0 -139 -88q-37 -74 -51 -268q-4 -41 -8 -127h225v-164l-235 -2q-10 -240 -127 -485q111 55 239 55 q41 0 119 -8q76 -10 109 -10q35 0 55 8q70 27 69 121q0 20 -8 80l150 -3q4 -14 8 -38q6 -55 6 -91q0 -174 -102 -237q-57 -37 -217 -37h-664v66q41 74 68 149q61 172 77 432h-149z"/>
<glyph unicode="¤" horiz-adv-x="1366" d="M86 223l156 154q-104 152 -105 321q0 133 62 248q10 18 43 66l-154 155l123 123l154 -153q154 104 319 104q133 0 248 -59q12 -6 28.5 -17.5t27.5 -19.5t13 -8l154 153l125 -123l-156 -155q102 -139 103 -318q0 -123 -47 -223q-16 -37 -58 -96l158 -156l-127 -123 l-156 156q-141 -102 -315 -102q-166 0 -317 104l-156 -156zM301 694q0 -162 111.5 -272.5t273.5 -110.5q121 0 209 62q168 111 168 323q0 135 -78 238q-117 147 -301 145q-74 0 -141 -24q-113 -43 -177.5 -140.5t-64.5 -220.5z"/>
<glyph unicode="¦" horiz-adv-x="468" d="M152 389h165v-780h-165v780zM152 631v780h165v-780h-165z"/>
<glyph unicode="§" horiz-adv-x="1087" d="M113 8v31l170 -2q2 -57 10 -86q43 -152 233 -152q51 0 84 11q119 35 119 159q0 43 -18 74q-8 12 -17.5 23.5t-23 22.5t-21.5 18.5t-26.5 18.5t-24.5 15t-27.5 15.5t-23.5 13.5q-14 8 -164 94q-78 45 -115 72q-152 100 -151 260q2 158 178 256q6 2 8 4q-41 33 -59 53 q-72 78 -72 193q0 74 33 137q98 190 358 191q35 0 72 -5.5t99.5 -24t114.5 -66.5t81 -120q25 -66 24 -159v-35h-163q0 53 -5 82q-29 166 -213 166q-98 0 -144 -46t-46 -106q0 -41 29 -82q20 -29 56 -52.5t122 -72.5q25 -14 84 -47t92 -51q92 -51 139 -104q72 -78 72 -185 q0 -53 -21 -106q-41 -100 -157 -166l16 -12q14 -14 19.5 -18.5t19.5 -19t21.5 -24.5t19.5 -26.5t18.5 -33t13.5 -37t10 -44t3 -47.5q0 -86 -33 -154q-100 -197 -370 -196q-174 0 -273.5 74.5t-132.5 172.5q-18 51 -18 123zM311 621q0 -41 25 -74q4 -6 9 -12.5t10 -11.5 t12.5 -11l12.5 -10t15.5 -11.5t15.5 -10.5t18 -11t19.5 -11t23.5 -13.5t26 -14.5q55 -33 170 -98q49 20 82.5 62t33.5 93q0 35 -18 66q-12 18 -36.5 37.5t-44 31t-54.5 31t-41 23.5l-160 92q-37 -14 -65 -39q-54 -47 -54 -108z"/>
<glyph unicode="¨" horiz-adv-x="555" d="M-225 1202v254h252v-254h-252zM186 1202v254h252v-254h-252z"/>
<glyph unicode="©" horiz-adv-x="1705" d="M125 725q0 266 166 467q223 260 565 260q246 0 434 -141q45 -35 88 -79t94.5 -118t82 -176t28.5 -219q0 -260 -166 -461q-88 -109 -210 -172t-200.5 -77.5t-152.5 -14.5q-145 0 -285 57q-207 86 -325.5 268.5t-118.5 405.5zM190 723q0 -133 50 -252q76 -186 244.5 -299 t371.5 -113q90 0 201 33q207 66 331.5 239t127.5 390q0 268 -168 450q-193 215 -492 215q-221 0 -393 -126q-41 -31 -81 -71t-87 -106.5t-76 -160t-29 -199.5zM393 743q0 180 78 291q33 49 80 80q113 76 293 76q29 0 83 -6t77 -6l49 -2q4 0 62.5 -3.5t86.5 -3.5 q6 -143 19 -292l-62 2q0 39 -29 110q-59 156 -223 156q-102 0 -168 -60q-100 -90 -100 -323q0 -319 127 -422q57 -47 160 -47q109 0 170 67q27 33 43 74q8 20 24 119h60q0 -47 1 -137t1 -135q-106 -12 -150 -17l-49 -4q-178 -12 -182 -12q-229 0 -342 129q-109 124 -109 366 z"/>
<glyph unicode="ª" horiz-adv-x="1056" d="M57 270q0 100 60 183q18 27 40.5 49t53.5 40.5t52.5 33t63.5 28.5t60.5 21.5t68.5 18.5t62 14.5t65.5 14.5t57.5 11v31q0 74 -8 98q-31 80 -160 80q-123 0 -172 -64q-27 -33 -39 -135h-158l23 209q25 25 39 35q125 109 321 109q143 0 229.5 -51.5t119.5 -127.5 q18 -45 22 -98q2 -53 2 -156v-467h152v-147h-353v145q-27 -45 -67 -86q-90 -82 -225 -82q-186 0 -271 148q-39 63 -39 145zM283 297q0 -68 42 -109t109 -41q61 0 117 35q14 10 26.5 21.5t21.5 20.5t16.5 26.5t11.5 26t7 29t5 27.5t3 31.5t1 28.5v32v30v98q-90 -23 -143 -41 q-217 -68 -217 -215z"/>
<glyph unicode="«" horiz-adv-x="831" d="M70 512l223 512h160l-195 -512l195 -512h-160zM403 512l224 512h159l-196 -512l196 -512h-159z"/>
<glyph unicode="¬" horiz-adv-x="1366" d="M0 518v162h1366v-680h-164v518h-1202z"/>
<glyph unicode="­" horiz-adv-x="458" d="M2 500v116h455v-116h-455z"/>
<glyph unicode="®" horiz-adv-x="1705" d="M125 725q0 266 166 467q223 260 565 260q174 0 327.5 -76t258.5 -217q145 -195 141 -440q-4 -258 -160 -455q-88 -111 -212 -176t-203.5 -79.5t-153.5 -14.5q-145 0 -285 57q-207 86 -325.5 268.5t-118.5 405.5zM190 723q0 -133 50 -252q76 -186 244.5 -299t371.5 -113 q125 0 250 50q186 76 298 242.5t114 369.5q0 238 -146 418q-31 39 -70.5 75.5t-102 78.5t-153 67.5t-190.5 25.5q-221 0 -393 -126q-41 -31 -81 -71t-87 -106.5t-76 -160t-29 -199.5zM485 266v84q76 10 86 37q8 14 9 49v570q0 61 -13 73q-16 16 -82 21v88q184 -4 222 -4 q33 0 102.5 2t103.5 2q195 0 271 -86q51 -57 51 -139q0 -68 -41 -123q-25 -33 -67 -56.5t-67.5 -29.5t-43.5 -9q8 -2 16 -7t17 -9l6 -6q51 -45 73 -139l19 -80q20 -82 39 -92q6 -4 14 -4q39 0 60 110l77 -12q-33 -141 -73 -191q-45 -57 -111 -57q-72 0 -115 51 q-16 18 -34 66q-12 33 -60 207q-14 53 -26 71q-37 55 -111 56h-51v-236v-63q6 -31 27.5 -42.5t76.5 -15.5l-2 -86q-18 0 -59 2t-62 2q-41 0 -252 -4zM756 819h57q55 0 77.5 1t63.5 14.5t66 42.5q33 33 33 84q0 35 -21 69q-37 63 -151 64q-86 0 -105.5 -18.5t-19.5 -104.5 v-152z"/>
<glyph unicode="°" horiz-adv-x="724" d="M33 1216.5q0 137.5 96 233.5t233.5 96t233.5 -96t96 -233q0 -76 -30 -142q-41 -86 -123 -138t-177 -52q-137 2 -233 98t-96 233.5zM201 1221q0 -68 48 -115t113 -47q68 0 115 47t47 115q0 66 -47 113.5t-114.5 47.5t-114.5 -47.5t-47 -113.5z"/>
<glyph unicode="±" horiz-adv-x="1024" d="M63 0v162h898v-162h-898zM63 698v164h371v367h162v-367h365v-164h-365v-366h-162v366h-371z"/>
<glyph unicode="²" d="M100 0v180q211 205 377 420q59 74 111 154q123 182 123 299q0 90 -58.5 143t-148.5 53q-86 0 -157 -58t-77 -202h-157q0 92 24 168q35 104 130 188.5t274 84.5q233 0 340 -160q57 -88 57 -195q0 -156 -158 -381q-129 -178 -327 -389q-37 -39 -115 -117h496v185h157v-373 h-891z"/>
<glyph unicode="³" d="M84 403l178 -2q4 -68 19 -104q23 -53 78 -99t149 -46q57 0 108 22q72 31 111 99.5t39 150.5q0 78 -33 133q-66 121 -270 121h-74v166q205 -8 279 84q47 55 47 137q0 88 -55.5 143.5t-143.5 55.5q-27 0 -57.5 -7.5t-72.5 -38t-64 -81.5q-14 -35 -25 -99h-172q2 74 27 142 q45 121 150.5 185.5t240.5 64.5q80 0 153 -25q111 -37 174.5 -124t63.5 -202q0 -158 -117 -258q-29 -27 -80 -51q82 -33 92 -39q164 -102 164 -309q0 -98 -35 -178q-18 -43 -48.5 -83t-82 -83t-130.5 -69.5t-175 -26.5q-57 0 -139 16q-209 53 -277 242q-22 65 -22 163z"/>
<glyph unicode="´" horiz-adv-x="555" d="M-55 1180l272 266h272l-317 -266h-227z"/>
<glyph unicode="µ" horiz-adv-x="1150" d="M141 748q0 96 13 131q4 12 12 25.5t29.5 29.5t48.5 16q41 0 65 -39q25 -35 25 -108q0 -51 -12 -158q-6 -57 -23 -194q-20 -162 -27 -195q14 -37 39 -80q66 -92 166 -92q59 0 109 37q102 74 133 244q8 41 12 91t5 98t1 85t-1 68.5t-1 33.5q0 135 25 172q27 39 74 37 q31 0 51 -14q53 -39 53 -186q0 -248 -59 -428q-14 -47 -41 -99l2 -8l8 -16q4 -8 11 -19.5t15.5 -22t19.5 -18.5t24.5 -13t29.5 -5q47 0 67.5 36t20.5 85q0 12 -4 45l58 2q29 -70 28 -142q0 -18 -3 -38.5t-15.5 -54.5t-43 -55.5t-77.5 -21.5q-84 0 -139 80q-25 33 -43 90 q-117 -178 -299 -178q-121 0 -209 99q-12 12 -29 36q-14 -209 62 -364l55 -92q39 -66 39 -99q0 -37 -24.5 -61.5t-63.5 -24.5q-23 0 -47 13q-41 20 -68 80q-53 113 -53 352q0 205 22 348q-16 111 -22 166q-6 59 -15 168q-4 103 -4 158z"/>
<glyph unicode="¶" horiz-adv-x="1366" d="M180 1038q0 137 73 242.5t202 144.5q66 20 178 21h471v-111h-70v-1677h-119v1677h-294v-1677h-119v995q-72 12 -119 35q-100 47 -151.5 140t-51.5 210z"/>
<glyph unicode="·" horiz-adv-x="555" d="M150 588v254h256v-254h-256z"/>
<glyph unicode="¸" horiz-adv-x="555" d="M-33 -344q70 -14 115 -14q29 0 45 4q74 25 72 90q0 39 -30 69.5t-95 30.5q-8 0 -21.5 -2t-23.5 -2l-11 -2l62 170h141l-39 -106q33 0 84 -29q33 -16 62.5 -55t29.5 -101q0 -29 -14 -69q-53 -131 -209 -132q-74 0 -168 33v115z"/>
<glyph unicode="¹" d="M223 1040l2 125q63 0 107 13q156 41 198 247h166v-1271h191v-154h-617v154h199v886h-246z"/>
<glyph unicode="º" horiz-adv-x="1097" d="M74 512q0 348 243 479q111 57 232 58q104 0 203 -43q272 -123 272 -494q0 -342 -236 -473q-115 -63 -239 -64q-45 0 -98.5 11.5t-122 41t-129 98.5t-93.5 165q-32 98 -32 221zM315 514q0 -244 103 -334q55 -47 131 -47q133 0 190 123q43 94 43 260q0 162 -41 252 q-10 27 -28.5 51.5t-63.5 50t-100 25.5q-129 0 -191 -125q-43 -90 -43 -256z"/>
<glyph unicode="»" horiz-adv-x="831" d="M47 0l195 512l-195 512h158l223 -512l-223 -512h-158zM379 0l196 512l-196 512h160l223 -512l-223 -512h-160z"/>
<glyph unicode="¼" horiz-adv-x="2476" d="M1407 379v166l557 880h205v-878h217v-168h-217v-225h143v-154h-512v154h152v225h-545zM1587 547h365v303q0 66 4 192l6 166q-86 -172 -121 -233q-23 -43 -72 -125zM739 0l822 1411h155l-823 -1411h-154zM223 1040l2 125q63 0 107 13q156 41 198 247h166v-1271h191v-154 h-617v154h199v886h-246z"/>
<glyph unicode="½" horiz-adv-x="2476" d="M1466 0v180q211 205 377 420q59 74 111 154q123 182 123 299q0 90 -58.5 143t-148.5 53q-86 0 -157 -58t-77 -202h-157q0 92 24 168q35 104 130 188.5t274 84.5q233 0 340 -160q57 -88 57 -195q0 -156 -158 -381q-129 -178 -327 -389q-37 -39 -115 -117h496v185h157v-373 h-891zM739 0l822 1411h155l-823 -1411h-154zM223 1040l2 125q63 0 107 13q156 41 198 247h166v-1271h191v-154h-617v154h199v886h-246z"/>
<glyph unicode="¾" horiz-adv-x="2476" d="M1407 379v166l557 880h205v-878h217v-168h-217v-225h143v-154h-512v154h152v225h-545zM1587 547h365v303q0 66 4 192l6 166q-86 -172 -121 -233q-23 -43 -72 -125zM739 0l822 1411h155l-823 -1411h-154zM84 403l178 -2q4 -68 19 -104q23 -53 78 -99t149 -46q57 0 108 22 q72 31 111 99.5t39 150.5q0 78 -33 133q-66 121 -270 121h-74v166q205 -8 279 84q47 55 47 137q0 88 -55.5 143.5t-143.5 55.5q-27 0 -57.5 -7.5t-72.5 -38t-64 -81.5q-14 -35 -25 -99h-172q2 74 27 142q45 121 150.5 185.5t240.5 64.5q80 0 153 -25q111 -37 174.5 -124 t63.5 -202q0 -158 -117 -258q-29 -27 -80 -51q82 -33 92 -39q164 -102 164 -309q0 -98 -35 -178q-18 -43 -48.5 -83t-82 -83t-130.5 -69.5t-175 -26.5q-57 0 -139 16q-209 53 -277 242q-22 65 -22 163z"/>
<glyph unicode="¿" horiz-adv-x="874" d="M57 -92q0 63 23 121q16 45 50 90t54.5 64.5t73.5 68.5q76 70 102 106q45 63 46 201v51l204 -2q0 -186 -24 -258q-16 -53 -54 -99t-133 -140q-35 -35 -53 -56.5t-35.5 -58.5t-17.5 -74q0 -45 20 -76q41 -59 127 -59q51 0 92 23q86 47 97 172h182q-8 -115 -33 -175 q-35 -80 -126 -147.5t-240 -67.5q-203 0 -297 132q-58 80 -58 184zM369 782v242h243v-242h-243z"/>
<glyph unicode="À" horiz-adv-x="1472" d="M12 0v160h181l430 1296h237l414 -1296h184v-160h-584v160h158l-88 284h-483l-92 -284h157v-160h-514zM297 1874h324l327 -268h-272zM508 608h389l-86 297q-4 16 -49 182q-33 119 -47 179q-41 -158 -107 -361z"/>
<glyph unicode="Á" horiz-adv-x="1472" d="M12 0v160h181l430 1296h237l414 -1296h184v-160h-584v160h158l-88 284h-483l-92 -284h157v-160h-514zM508 608h389l-86 297q-4 16 -49 182q-33 119 -47 179q-41 -158 -107 -361zM524 1606l328 268h324l-379 -268h-273z"/>
<glyph unicode="Â" horiz-adv-x="1472" d="M12 0v160h181l430 1296h237l414 -1296h184v-160h-584v160h158l-88 284h-483l-92 -284h157v-160h-514zM311 1606l303 268h244l303 -268h-231l-195 161l-190 -161h-234zM508 608h389l-86 297q-4 16 -49 182q-33 119 -47 179q-41 -158 -107 -361z"/>
<glyph unicode="Ã" horiz-adv-x="1472" d="M12 0v160h181l430 1296h237l414 -1296h184v-160h-584v160h158l-88 284h-483l-92 -284h157v-160h-514zM317 1663q74 201 242 201q27 0 59.5 -7.5t50 -13.5t61.5 -22.5t50 -18.5q90 -35 127 -35q12 0 23.5 2.5t21 6.5t17.5 10t13 11t11 13.5t10.5 14.5t8.5 14t5 12l3 13 l4 6l131 -49q-6 -31 -22 -64q-31 -63 -89.5 -104t-128.5 -41q-59 0 -237 65q-82 33 -113 33q-14 0 -26.5 -4t-21.5 -9t-18.5 -13.5t-15.5 -15.5t-11 -16.5t-8 -15.5t-5 -14l-4 -6zM508 608h389l-86 297q-4 16 -49 182q-33 119 -47 179q-41 -158 -107 -361z"/>
<glyph unicode="Ä" horiz-adv-x="1472" d="M12 0v160h181l430 1296h237l414 -1296h184v-160h-584v160h158l-88 284h-483l-92 -284h157v-160h-514zM397 1614v254h258v-254h-258zM508 608h391l-88 297q-4 16 -49 182q-33 119 -45 179q-12 -37 -32.5 -113t-33.5 -115q-14 -43 -43 -133zM817 1614v254h258v-254h-258z "/>
<glyph unicode="Å" horiz-adv-x="1472" d="M12 0v160h181l430 1296h237l414 -1296h184v-160h-584v160h158l-88 284h-483l-92 -284h157v-160h-514zM508 608h391l-88 297q-4 16 -49 182q-33 119 -45 179q-12 -37 -32.5 -113t-33.5 -115q-14 -43 -43 -133zM553 1741q0 37 16 76q49 106 168 106q76 0 129.5 -53 t53.5 -131q0 -76 -54.5 -129.5t-130.5 -53.5q-39 0 -71 15q-49 20 -80 67.5t-31 102.5zM647 1739q0 -35 26.5 -61.5t63.5 -26.5t62.5 26.5t25.5 63.5t-26.5 62.5t-63.5 25.5t-62.5 -26.5t-25.5 -63.5z"/>
<glyph unicode="Æ" horiz-adv-x="1951" d="M-2 0v160h186l746 1286h934v-342h-164v176h-447v-440h426v-166h-426v-506h473v213h162v-381h-1048v160h182v262h-500l-147 -262h164v-160h-541zM616 588h406v708z"/>
<glyph unicode="Ç" horiz-adv-x="1300" d="M74 719q0 420 233 620q160 137 385 138q158 0 271 -64q39 -18 86 -59v92h165v-445h-165q-18 143 -72 205q-92 102 -250 103q-193 0 -297 -144q-109 -154 -108 -442q0 -356 159 -502q90 -84 226 -84q74 0 133 25.5t94 64.5t54.5 72t29.5 66q20 57 29 147h176 q-2 -55 -5.5 -86t-19.5 -103.5t-59 -136t-111 -114.5q-135 -102 -336 -103q-217 0 -370 119q-57 43 -107 111q-141 196 -141 520zM510 -344q72 -14 117 -14q29 0 43 4q72 23 71 90q0 39 -28.5 69.5t-94.5 30.5q-8 0 -22 -2t-25 -2l-10 -2l64 170h139l-37 -106q29 0 82 -29 q94 -53 92 -156q0 -41 -12 -69q-53 -131 -211 -132q-74 0 -168 33v115z"/>
<glyph unicode="È" horiz-adv-x="1163" d="M59 0v158h181v1130h-181v158h1020v-352h-164v186h-444v-438h469v-168h-469v-506h463v233h164v-401h-1039zM164 1874h321l330 -268h-272z"/>
<glyph unicode="É" horiz-adv-x="1163" d="M59 0v158h181v1130h-181v158h1020v-352h-164v186h-444v-438h469v-168h-469v-506h463v233h164v-401h-1039zM391 1606l328 268h323l-378 -268h-273z"/>
<glyph unicode="Ê" horiz-adv-x="1163" d="M59 0v158h181v1130h-181v158h1020v-352h-164v186h-444v-438h469v-168h-469v-506h463v233h164v-401h-1039zM178 1606l303 268h244l303 -268h-233l-193 161l-190 -161h-234z"/>
<glyph unicode="Ë" horiz-adv-x="1163" d="M59 0v158h181v1130h-181v158h1020v-352h-164v186h-444v-438h469v-168h-469v-506h463v233h164v-401h-1039zM264 1614v254h258v-254h-258zM684 1614v254h256v-254h-256z"/>
<glyph unicode="Ì" horiz-adv-x="714" d="M-82 1874h324l327 -268h-272zM59 0v158h181v1130h-181v158h596v-158h-180v-1130h180v-158h-596z"/>
<glyph unicode="Í" horiz-adv-x="714" d="M59 0v158h181v1130h-181v158h596v-158h-180v-1130h180v-158h-596zM145 1606l328 268h324l-379 -268h-273z"/>
<glyph unicode="Î" horiz-adv-x="714" d="M-68 1606l304 268h243l303 -268h-231l-195 161l-190 -161h-234zM59 0v158h181v1130h-181v158h596v-158h-180v-1130h180v-158h-596z"/>
<glyph unicode="Ï" horiz-adv-x="714" d="M18 1614v254h258v-254h-258zM59 0v158h181v1130h-181v158h596v-158h-180v-1130h180v-158h-596zM438 1614v254h258v-254h-258z"/>
<glyph unicode="Ñ" horiz-adv-x="1503" d="M59 0v158h181v1130h-181v158h445l299 -535q90 -162 301 -569q0 82 -1 246t-1 248v452h-180v158h528v-158h-180v-1288h-213l-324 584q-61 113 -174 324.5t-153 287.5q4 -178 4 -534v-504h180v-158h-531zM332 1663q49 117 112 162q57 39 129 39q27 0 61 -7.5t51 -13.5 t61.5 -22.5t50.5 -18.5q90 -35 127 -35q12 0 23 2.5t20.5 6.5t17.5 10t13.5 11t11.5 13.5t10 14.5t8 14t5 12l3 13l4 6l131 -49q-2 -4 -4 -14.5t-7 -24t-11 -25.5q-31 -63 -89.5 -104t-127.5 -41q-66 0 -238 65q-82 33 -112 33q-14 0 -26.5 -4t-22 -9t-18.5 -13.5t-15 -15.5 t-13 -17l-9 -16q-3 -5 -7 -13l-2 -6z"/>
<glyph unicode="Ò" horiz-adv-x="1409" d="M76 723q0 322 147 522q66 88 154 144q139 88 328 88q285 0 456 -201q170 -201 170 -553q0 -41 -2 -80t-17.5 -125t-42 -157.5t-84 -152.5t-136.5 -136q-152 -102 -347 -103q-170 0 -307 78q-90 51 -154.5 134t-95 158t-48 166t-19.5 132t-2 86zM266 1874h322l327 -268 h-272zM324 723q0 -254 77 -401q27 -49 82 -105q96 -80 222 -80q115 0 210 72q170 139 170 514q0 262 -84 410q-35 61 -86 104q-86 72 -213 72q-193 0 -292 -170q-86 -146 -86 -416z"/>
<glyph unicode="Ó" horiz-adv-x="1409" d="M76 723q0 322 147 522q66 88 154 144q139 88 328 88q285 0 456 -201q170 -201 170 -553q0 -41 -2 -80t-17.5 -125t-42 -157.5t-84 -152.5t-136.5 -136q-152 -102 -347 -103q-170 0 -307 78q-90 51 -154.5 134t-95 158t-48 166t-19.5 132t-2 86zM324 723q0 -254 77 -401 q27 -49 82 -105q96 -80 222 -80q115 0 210 72q170 139 170 514q0 262 -84 410q-35 61 -86 104q-86 72 -213 72q-193 0 -292 -170q-86 -146 -86 -416zM492 1606l329 268h322l-379 -268h-272z"/>
<glyph unicode="Ô" horiz-adv-x="1409" d="M76 723q0 322 147 522q66 88 154 144q139 88 328 88q285 0 456 -201q170 -201 170 -553q0 -41 -2 -80t-17.5 -125t-42 -157.5t-84 -152.5t-136.5 -136q-152 -102 -347 -103q-170 0 -307 78q-90 51 -154.5 134t-95 158t-48 166t-19.5 132t-2 86zM279 1606l303 268h245 l301 -268h-231l-192 161l-193 -161h-233zM324 723q0 -254 77 -401q27 -49 82 -105q96 -80 222 -80q115 0 210 72q170 139 170 514q0 262 -84 410q-35 61 -86 104q-86 72 -213 72q-193 0 -292 -170q-86 -146 -86 -416z"/>
<glyph unicode="Õ" horiz-adv-x="1409" d="M76 723q0 322 147 522q66 88 154 144q139 88 328 88q285 0 456 -201q170 -201 170 -553q0 -41 -2 -80t-17.5 -125t-42 -157.5t-84 -152.5t-136.5 -136q-152 -102 -347 -103q-170 0 -307 78q-90 51 -154.5 134t-95 158t-48 166t-19.5 132t-2 86zM285 1663q74 201 241 201 q57 0 222 -62q90 -35 126 -35q86 0 117 103l133 -49q-2 -2 -5 -13.5t-8 -25t-11 -25.5q-33 -63 -90.5 -104t-126.5 -41q-63 0 -236 65q-86 33 -115 33q-12 0 -25 -4t-22.5 -9t-18.5 -13.5t-14.5 -15.5t-11.5 -17l-9 -16q-3 -5 -5 -13l-4 -6zM324 723q0 -254 77 -401 q27 -49 82 -105q96 -80 222 -80q115 0 210 72q170 139 170 514q0 262 -84 410q-35 61 -86 104q-86 72 -213 72q-193 0 -292 -170q-86 -146 -86 -416z"/>
<glyph unicode="Ö" horiz-adv-x="1409" d="M76 723q0 322 147 522q66 88 154 144q139 88 328 88q285 0 456 -201q170 -201 170 -553q0 -41 -2 -80t-17.5 -125t-42 -157.5t-84 -152.5t-136.5 -136q-152 -102 -347 -103q-170 0 -307 78q-90 51 -154.5 134t-95 158t-48 166t-19.5 132t-2 86zM324 723q0 -254 77 -401 q27 -49 82 -105q96 -80 222 -80q115 0 210 72q170 139 170 514q0 262 -84 410q-35 61 -86 104q-86 72 -213 72q-193 0 -292 -170q-86 -146 -86 -416zM367 1614v254h256v-254h-256zM786 1614v254h256v-254h-256z"/>
<glyph unicode="×" horiz-adv-x="1024" d="M88 289l311 311l-311 307l115 113l311 -307l307 307l115 -113l-307 -307l307 -311l-115 -117l-307 309l-311 -309z"/>
<glyph unicode="Ø" horiz-adv-x="1409" d="M-51 0l237 260q-6 10 -14 28.5t-14 26.5q-82 184 -82 422q0 190 63.5 359.5t198.5 269.5q150 111 356 111q219 0 363 -105q35 -25 76 -67l129 141h178l-226 -248q18 -31 33 -59q84 -182 84 -428q0 -55 -6 -109.5t-26.5 -158t-81 -201t-150.5 -164.5q-150 -109 -354 -109 q-236 0 -394 131q-37 33 -53 52l-139 -152h-178zM324 741q0 -152 34 -295l631 703q-23 35 -35 49q-96 111 -255.5 111t-258.5 -123q-116 -148 -116 -445zM412 311q102 -174 297 -174q125 0 211 72q166 139 165 491q0 186 -38 316z"/>
<glyph unicode="Ù" horiz-adv-x="1472" d="M47 1288v158h594v-158h-180v-688q0 -82 2 -121q4 -135 39 -200q72 -139 264 -138q168 0 248 109q33 41 47 110q12 53 12 224v704h-180v158h532v-158h-180v-708q0 -106 -2 -151.5t-21.5 -122.5t-60.5 -138q-51 -78 -156.5 -138.5t-265.5 -60.5q-123 0 -238.5 45 t-183.5 138q-20 29 -36.5 57.5t-25.5 68t-15.5 59t-9.5 72t-3 61.5v73v65v680h-180zM297 1874h324l327 -268h-272z"/>
<glyph unicode="Ú" horiz-adv-x="1472" d="M47 1288v158h594v-158h-180v-688q0 -82 2 -121q4 -135 39 -200q72 -139 264 -138q168 0 248 109q33 41 47 110q12 53 12 224v704h-180v158h532v-158h-180v-708q0 -106 -2 -151.5t-21.5 -122.5t-60.5 -138q-51 -78 -156.5 -138.5t-265.5 -60.5q-123 0 -238.5 45 t-183.5 138q-20 29 -36.5 57.5t-25.5 68t-15.5 59t-9.5 72t-3 61.5v73v65v680h-180zM524 1606l328 268h324l-379 -268h-273z"/>
<glyph unicode="Û" horiz-adv-x="1472" d="M47 1288v158h594v-158h-180v-688q0 -82 2 -121q4 -135 39 -200q72 -139 264 -138q168 0 248 109q33 41 47 110q12 53 12 224v704h-180v158h532v-158h-180v-708q0 -106 -2 -151.5t-21.5 -122.5t-60.5 -138q-51 -78 -156.5 -138.5t-265.5 -60.5q-123 0 -238.5 45 t-183.5 138q-20 29 -36.5 57.5t-25.5 68t-15.5 59t-9.5 72t-3 61.5v73v65v680h-180zM311 1606l303 268h244l303 -268h-231l-195 161l-190 -161h-234z"/>
<glyph unicode="Ü" horiz-adv-x="1472" d="M47 1288v158h594v-158h-180v-688q0 -82 2 -121q4 -135 39 -200q72 -139 264 -138q168 0 248 109q33 41 47 110q12 53 12 224v704h-180v158h532v-158h-180v-708q0 -106 -2 -151.5t-21.5 -122.5t-60.5 -138q-51 -78 -156.5 -138.5t-265.5 -60.5q-123 0 -238.5 45 t-183.5 138q-20 29 -36.5 57.5t-25.5 68t-15.5 59t-9.5 72t-3 61.5v73v65v680h-180zM397 1614v254h258v-254h-258zM817 1614v254h258v-254h-258z"/>
<glyph unicode="Ý" horiz-adv-x="1290" d="M531 1600l272 266h272l-317 -266h-227zM0 1288v158h600v-158h-156l230 -497l235 497h-153v158h534v-158h-194l-338 -688v-442h180v-158h-592v158h180v436l-342 694h-184z"/>
<glyph unicode="ß" horiz-adv-x="1150" d="M49 0v147h156v793q0 18 2 51t2 51q6 147 49 230q39 72 107 117q104 68 237 67q158 0 264 -88q119 -96 119 -262q0 -164 -121 -252q-25 -18 -78 -43q43 -10 76 -27q111 -53 166 -160.5t55 -236.5q0 -160 -84 -270q-102 -135 -272 -135q-92 4 -162 36v162q61 -35 119 -35 q72 0 123 60.5t51 185.5q0 55 -16 115q-45 150 -180 199q-57 23 -140 18v156q72 0 101 8q57 14 101 61t44 142q0 86 -45 143t-129 57q-70 0 -106.5 -34.5t-47.5 -75.5q-14 -45 -14 -240v-940h-377z"/>
<glyph unicode="à" horiz-adv-x="1056" d="M57 270q0 100 60 183q18 27 40.5 49t53.5 40.5t52.5 33t63.5 28.5t60.5 21.5t68.5 18.5t62 14.5t65.5 14.5t57.5 11v31q0 74 -8 98q-31 80 -160 80q-123 0 -172 -64q-27 -33 -39 -135h-158l23 209q25 25 39 35q125 109 321 109q143 0 229.5 -51.5t119.5 -127.5 q18 -45 22 -98q2 -53 2 -156v-467h152v-147h-353v145q-27 -45 -67 -86q-90 -82 -225 -82q-186 0 -271 148q-39 63 -39 145zM145 1446h273l272 -266h-229zM283 297q0 -68 42 -109t109 -41q61 0 117 35q14 10 26.5 21.5t21.5 20.5t16.5 26.5t11.5 26t7 29t5 27.5t3 31.5 t1 28.5v32v30v98q-90 -23 -143 -41q-217 -68 -217 -215z"/>
<glyph unicode="á" horiz-adv-x="1056" d="M57 270q0 100 60 183q18 27 40.5 49t53.5 40.5t52.5 33t63.5 28.5t60.5 21.5t68.5 18.5t62 14.5t65.5 14.5t57.5 11v31q0 74 -8 98q-31 80 -160 80q-123 0 -172 -64q-27 -33 -39 -135h-158l23 209q25 25 39 35q125 109 321 109q143 0 229.5 -51.5t119.5 -127.5 q18 -45 22 -98q2 -53 2 -156v-467h152v-147h-353v145q-27 -45 -67 -86q-90 -82 -225 -82q-186 0 -271 148q-39 63 -39 145zM283 297q0 -68 42 -109t109 -41q61 0 117 35q14 10 26.5 21.5t21.5 20.5t16.5 26.5t11.5 26t7 29t5 27.5t3 31.5t1 28.5v32v30v98q-90 -23 -143 -41 q-217 -68 -217 -215zM365 1180l274 266h270l-315 -266h-229z"/>
<glyph unicode="â" horiz-adv-x="1056" d="M57 270q0 100 60 183q18 27 40.5 49t53.5 40.5t52.5 33t63.5 28.5t60.5 21.5t68.5 18.5t62 14.5t65.5 14.5t57.5 11v31q0 74 -8 98q-31 80 -160 80q-123 0 -172 -64q-27 -33 -39 -135h-158l23 209q25 25 39 35q125 109 321 109q143 0 229.5 -51.5t119.5 -127.5 q18 -45 22 -98q2 -53 2 -156v-467h152v-147h-353v145q-27 -45 -67 -86q-90 -82 -225 -82q-186 0 -271 148q-39 63 -39 145zM133 1182l266 268h215l265 -268h-205l-168 159l-166 -159h-207zM283 297q0 -68 42 -109t109 -41q61 0 117 35q14 10 26.5 21.5t21.5 20.5t16.5 26.5 t11.5 26t7 29t5 27.5t3 31.5t1 28.5v32v30v98q-90 -23 -143 -41q-217 -68 -217 -215z"/>
<glyph unicode="ã" horiz-adv-x="1056" d="M57 270q0 100 60 183q18 27 40.5 49t53.5 40.5t52.5 33t63.5 28.5t60.5 21.5t68.5 18.5t62 14.5t65.5 14.5t57.5 11v31q0 74 -8 98q-31 80 -160 80q-123 0 -172 -64q-27 -33 -39 -135h-158l23 209q25 25 39 35q125 109 321 109q143 0 229.5 -51.5t119.5 -127.5 q18 -45 22 -98q2 -53 2 -156v-467h152v-147h-353v145q-27 -45 -67 -86q-90 -82 -225 -82q-186 0 -271 148q-39 63 -39 145zM137 1239q6 20 17 45q68 156 198 156q53 0 193 -60q76 -35 110 -34q66 0 107 100l117 -47q-14 -47 -33 -84q-68 -125 -191 -125q-53 0 -206 65 q-68 29 -95 29q-23 0 -41 -12q-10 -6 -18 -16.5t-14.5 -21.5t-10.5 -20.5t-8 -17.5l-2 -6zM283 297q0 -68 42 -109t109 -41q61 0 117 35q14 10 26.5 21.5t21.5 20.5t16.5 26.5t11.5 26t7 29t5 27.5t3 31.5t1 28.5v32v30v98q-90 -23 -143 -41q-217 -68 -217 -215z"/>
<glyph unicode="ä" horiz-adv-x="1056" d="M57 270q0 100 60 183q18 27 40.5 49t53.5 40.5t52.5 33t63.5 28.5t60.5 21.5t68.5 18.5t62 14.5t65.5 14.5t57.5 11v31q0 74 -8 98q-31 80 -160 80q-123 0 -172 -64q-27 -33 -39 -135h-158l23 209q25 25 39 35q125 109 321 109q143 0 229.5 -51.5t119.5 -127.5 q18 -45 22 -98q2 -53 2 -156v-467h152v-147h-353v145q-27 -45 -67 -86q-90 -82 -225 -82q-186 0 -271 148q-39 63 -39 145zM162 1202v254h252v-254h-252zM283 297q0 -68 42 -109t109 -41q61 0 117 35q14 10 26.5 21.5t21.5 20.5t16.5 26.5t11.5 26t7 29t5 27.5t3 31.5 t1 28.5v32v30v98q-90 -23 -143 -41q-217 -68 -217 -215zM573 1202v254h252v-254h-252z"/>
<glyph unicode="å" horiz-adv-x="1056" d="M57 270q0 100 60 183q18 27 40.5 49t53.5 40.5t52.5 33t63.5 28.5t60.5 21.5t68.5 18.5t62 14.5t65.5 14.5t57.5 11v31q0 74 -8 98q-31 80 -160 80q-123 0 -172 -64q-27 -33 -39 -135h-158l23 209q25 25 39 35q125 109 321 109q143 0 229.5 -51.5t119.5 -127.5 q18 -45 22 -98q2 -53 2 -156v-467h152v-147h-353v145q-27 -45 -67 -86q-90 -82 -225 -82q-186 0 -271 148q-39 63 -39 145zM283 297q0 -68 42 -109t109 -41q61 0 117 35q14 10 26.5 21.5t21.5 20.5t16.5 26.5t11.5 26t7 29t5 27.5t3 31.5t1 28.5v32v30v98q-90 -23 -143 -41 q-217 -68 -217 -215zM311 1333q0 78 53.5 131.5t131.5 53.5q76 0 129 -53.5t53 -131.5q0 -76 -54.5 -129t-129.5 -53q-35 0 -62 10q-53 20 -87 67.5t-34 104.5zM406 1333q0 -35 26.5 -61.5t63 -26.5t62.5 26.5t26 61.5q0 39 -27 64.5t-63.5 25.5t-62 -26.5t-25.5 -63.5z"/>
<glyph unicode="æ" horiz-adv-x="1589" d="M59 268q0 106 64 193q53 70 148.5 110.5t168 50t185.5 15.5v51q0 82 -9 109q-29 96 -170 96q-127 0 -165 -62q-18 -33 -19 -71v-55h-156v215q160 127 379 127q127 0 207 -41q25 -12 45 -29q35 -31 54 -51q20 20 32 28q109 92 258 93q145 0 254 -82q137 -106 170 -314 q10 -82 11 -125q0 -37 -3 -55l-671 -2q0 -27 6 -84q14 -113 79.5 -184.5t174.5 -69.5q141 0 209 113q20 35 35 86h157q-10 -86 -45 -148q-55 -98 -154.5 -151.5t-216.5 -53.5q-156 0 -264 80q-41 29 -104 115q-33 -61 -82 -103t-99.5 -60.5t-86 -25t-68.5 -6.5 q-211 0 -293 152q-33 61 -31 139zM276 289q2 -63 45.5 -102.5t106.5 -39.5q55 0 111 35q86 61 86 230v63q-166 0 -252 -41q-97 -45 -97 -145zM850 625h442q-12 180 -102 237q-45 31 -111 31q-194 0 -229 -268z"/>
<glyph unicode="ç" horiz-adv-x="980" d="M76 498q0 147 55 277t168 204q102 68 219 68q96 0 172 -50q25 -16 58 -55v88h155v-352h-155q-14 115 -73 163t-128 48q-76 0 -131 -49q-104 -94 -105 -342v-37q0 -164 64.5 -244t163.5 -80q45 0 81.5 18.5t55 38t34 54.5t17.5 46t8 36h185q-18 -168 -121 -260.5 t-271 -92.5q-172 0 -284 101q-168 144 -168 420zM350 -344q72 -14 117 -14q29 0 43 4q72 23 72 90q0 39 -30 69.5t-93 30.5q-8 0 -22.5 -2t-24.5 -2l-11 -2l64 170h139l-37 -106q29 0 82 -29q94 -53 92 -156q0 -41 -12 -69q-53 -131 -211 -132q-74 0 -168 33v115z"/>
<glyph unicode="è" horiz-adv-x="1056" d="M74 508q0 115 24 192q45 160 161 253.5t278 93.5q106 0 202 -48q205 -100 238 -385q6 -43 6 -86q0 -8 -1 -24.5t-1 -22.5l-670 -2q-2 -53 6 -117q35 -231 234 -231q131 2 186 98q20 45 29 93h205q-6 -127 -94 -218q-123 -127 -330 -127q-176 0 -297 105 q-176 147 -176 426zM166 1446h272l275 -266h-232zM313 623h426q2 162 -67 225q-55 45 -131 45q-86 0 -144 -57q-70 -72 -84 -213z"/>
<glyph unicode="é" horiz-adv-x="1056" d="M74 508q0 115 24 192q45 160 161 253.5t278 93.5q106 0 202 -48q205 -100 238 -385q6 -43 6 -86q0 -8 -1 -24.5t-1 -22.5l-670 -2q-2 -53 6 -117q35 -231 234 -231q131 2 186 98q20 45 29 93h205q-6 -127 -94 -218q-123 -127 -330 -127q-176 0 -297 105 q-176 147 -176 426zM313 623h426q2 162 -67 225q-55 45 -131 45q-86 0 -144 -57q-70 -72 -84 -213zM387 1180l272 266h273l-316 -266h-229z"/>
<glyph unicode="ê" horiz-adv-x="1056" d="M74 508q0 115 24 192q45 160 161 253.5t278 93.5q106 0 202 -48q205 -100 238 -385q6 -43 6 -86q0 -8 -1 -24.5t-1 -22.5l-670 -2q-2 -53 6 -117q35 -231 234 -231q131 2 186 98q20 45 29 93h205q-6 -127 -94 -218q-123 -127 -330 -127q-176 0 -297 105 q-176 147 -176 426zM176 1182l266 268h215l265 -268h-205l-168 159l-166 -159h-207zM313 623h426q2 162 -67 225q-55 45 -131 45q-86 0 -144 -57q-70 -72 -84 -213z"/>
<glyph unicode="ë" horiz-adv-x="1056" d="M74 508q0 115 24 192q45 160 161 253.5t278 93.5q106 0 202 -48q205 -100 238 -385q6 -43 6 -86q0 -8 -1 -24.5t-1 -22.5l-670 -2q-2 -53 6 -117q35 -231 234 -231q131 2 186 98q20 45 29 93h205q-6 -127 -94 -218q-123 -127 -330 -127q-176 0 -297 105 q-176 147 -176 426zM217 1202v254h252v-254h-252zM313 623h426q2 162 -67 225q-55 45 -131 45q-86 0 -144 -57q-70 -72 -84 -213zM629 1202v254h252v-254h-252z"/>
<glyph unicode="ì" horiz-adv-x="641" d="M-63 1446h272l274 -266h-231zM57 0v147h156v732h-156v145h379v-877h158v-147h-537z"/>
<glyph unicode="í" horiz-adv-x="641" d="M57 0v147h156v732h-156v145h379v-877h158v-147h-537zM158 1180l272 266h272l-315 -266h-229z"/>
<glyph unicode="î" horiz-adv-x="641" d="M-53 1182l266 268h215l264 -268h-205l-168 159l-165 -159h-207zM57 0v147h156v732h-156v145h379v-877h158v-147h-537z"/>
<glyph unicode="ï" horiz-adv-x="641" d="M-12 1202v254h252v-254h-252zM57 0v147h156v732h-156v145h379v-877h158v-147h-537zM399 1202v254h252v-254h-252z"/>
<glyph unicode="ñ" horiz-adv-x="1216" d="M57 0v147h156v732h-156v145h365v-170q16 35 45 72q92 121 248 121q188 0 268 -154q8 -16 14.5 -31.5t10.5 -37t6 -33t3 -42t1 -43.5v-58v-62v-439h158v-147h-494v147h115v449q0 150 -21 192q-14 25 -43 46q-41 27 -92 26q-113 0 -170 -94q-35 -59 -35 -201v-418h113v-147 h-492zM238 1239q4 6 10 22.5t8 22.5q59 156 199 156q51 0 190 -60q76 -35 113 -34q66 0 104 100l119 -47q-14 -47 -33 -84q-68 -125 -190 -125q-51 0 -209 65q-68 29 -94.5 29t-38.5 -12q-16 -10 -28.5 -29.5t-18.5 -36.5l-9 -16z"/>
<glyph unicode="ò" horiz-adv-x="1097" d="M74 512q0 348 243 479q111 57 232 58q104 0 203 -43q272 -123 272 -494q0 -342 -236 -473q-115 -63 -239 -64q-45 0 -98.5 11.5t-122 41t-129 98.5t-93.5 165q-32 98 -32 221zM166 1446h272l275 -266h-232zM315 514q0 -244 103 -334q55 -47 131 -47q133 0 190 123 q43 94 43 260q0 162 -41 252q-10 27 -28.5 51.5t-63.5 50t-100 25.5q-129 0 -191 -125q-43 -90 -43 -256z"/>
<glyph unicode="ó" horiz-adv-x="1097" d="M74 512q0 348 243 479q111 57 232 58q104 0 203 -43q272 -123 272 -494q0 -342 -236 -473q-115 -63 -239 -64q-45 0 -98.5 11.5t-122 41t-129 98.5t-93.5 165q-32 98 -32 221zM315 514q0 -244 103 -334q55 -47 131 -47q133 0 190 123q43 94 43 260q0 162 -41 252 q-10 27 -28.5 51.5t-63.5 50t-100 25.5q-129 0 -191 -125q-43 -90 -43 -256zM387 1180l272 266h273l-316 -266h-229z"/>
<glyph unicode="ô" horiz-adv-x="1097" d="M74 512q0 348 243 479q111 57 232 58q104 0 203 -43q272 -123 272 -494q0 -342 -236 -473q-115 -63 -239 -64q-45 0 -98.5 11.5t-122 41t-129 98.5t-93.5 165q-32 98 -32 221zM176 1182l266 268h215l265 -268h-205l-168 159l-166 -159h-207zM315 514q0 -244 103 -334 q55 -47 131 -47q133 0 190 123q43 94 43 260q0 162 -41 252q-10 27 -28.5 51.5t-63.5 50t-100 25.5q-129 0 -191 -125q-43 -90 -43 -256z"/>
<glyph unicode="õ" horiz-adv-x="1097" d="M74 512q0 348 243 479q111 57 232 58q104 0 203 -43q272 -123 272 -494q0 -342 -236 -473q-115 -63 -239 -64q-45 0 -98.5 11.5t-122 41t-129 98.5t-93.5 165q-32 98 -32 221zM180 1239q6 20 17 45q68 156 198 156q53 0 193 -60q76 -35 110 -34q66 0 105 100l119 -47 q-14 -47 -33 -84q-68 -125 -191 -125q-53 0 -206 65q-68 29 -95 29q-29 0 -41 -12q-10 -6 -18 -16.5t-14.5 -21.5t-10.5 -20.5t-6 -17.5l-4 -6zM315 514q0 -244 103 -334q55 -47 131 -47q133 0 190 123q43 94 43 260q0 162 -41 252q-10 27 -28.5 51.5t-63.5 50t-100 25.5 q-129 0 -191 -125q-43 -90 -43 -256z"/>
<glyph unicode="ö" horiz-adv-x="1097" d="M74 512q0 348 243 479q111 57 232 58q104 0 203 -43q272 -123 272 -494q0 -342 -236 -473q-115 -63 -239 -64q-45 0 -98.5 11.5t-122 41t-129 98.5t-93.5 165q-32 98 -32 221zM217 1202v254h252v-254h-252zM315 514q0 -244 103 -334q55 -47 131 -47q133 0 190 123 q43 94 43 260q0 162 -41 252q-10 27 -28.5 51.5t-63.5 50t-100 25.5q-129 0 -191 -125q-43 -90 -43 -256zM629 1202v254h252v-254h-252z"/>
<glyph unicode="÷" horiz-adv-x="1024" d="M0 514v162h1024v-162h-1024zM399 297q0 49 34 83t81 34q49 0 84 -34t33 -83t-36 -81t-81 -32q-49 2 -82 34t-33 79zM399 891q0 49 34 84t83 33q49 0 83 -35t32 -84q0 -47 -35 -80t-82 -33q-49 2 -82 34t-33 81z"/>
<glyph unicode="ø" horiz-adv-x="1097" d="M-29 0l181 190q-2 2 -7.5 11.5t-7.5 15.5q-63 119 -63 295q0 125 33.5 222t84 154.5t117 95.5t125 51.5t115.5 13.5q141 0 256 -72q23 -12 57 -45l90 92h166l-176 -182q14 -18 27 -45q55 -115 55 -283q0 -360 -258 -487q-102 -51 -217 -52q-139 0 -256 74q-39 29 -64 51 l-92 -100h-166zM315 524q0 -51 13 -153l401 424q-12 20 -20 30q-63 70 -160 70q-115 0 -176 -100q-58 -97 -58 -271zM367 240q63 -106 182 -107q123 2 180 105q53 90 53 270q0 8 -12 156z"/>
<glyph unicode="ù" horiz-adv-x="1226" d="M39 879v145h377v-655q0 -133 76 -179q41 -25 98 -24q63 0 129 39q41 31 60.5 83t21.5 83.5t2 103.5v404h-156v145h377v-877h158v-147h-357v172q-14 -25 -39 -63q-96 -131 -260 -132q-47 0 -88 11q-27 6 -53.5 17t-62 34.5t-66.5 64.5t-45 97q-16 59 -16 260v418h-156z M231 1446h271l274 -266h-231z"/>
<glyph unicode="ú" horiz-adv-x="1226" d="M39 879v145h377v-655q0 -133 76 -179q41 -25 98 -24q63 0 129 39q41 31 60.5 83t21.5 83.5t2 103.5v404h-156v145h377v-877h158v-147h-357v172q-14 -25 -39 -63q-96 -131 -260 -132q-47 0 -88 11q-27 6 -53.5 17t-62 34.5t-66.5 64.5t-45 97q-16 59 -16 260v418h-156z M451 1180l274 266h270l-315 -266h-229z"/>
<glyph unicode="û" horiz-adv-x="1226" d="M39 879v145h377v-655q0 -133 76 -179q41 -25 98 -24q63 0 129 39q41 31 60.5 83t21.5 83.5t2 103.5v404h-156v145h377v-877h158v-147h-357v172q-14 -25 -39 -63q-96 -131 -260 -132q-47 0 -88 11q-27 6 -53.5 17t-62 34.5t-66.5 64.5t-45 97q-16 59 -16 260v418h-156z M240 1182l266 268h215l264 -268h-205l-166 159l-165 -159h-209z"/>
<glyph unicode="ü" horiz-adv-x="1226" d="M39 879v145h377v-655q0 -133 76 -179q41 -25 98 -24q63 0 129 39q41 31 60.5 83t21.5 83.5t2 103.5v404h-156v145h377v-877h158v-147h-357v172q-14 -25 -39 -63q-96 -131 -260 -132q-47 0 -88 11q-27 6 -53.5 17t-62 34.5t-66.5 64.5t-45 97q-16 59 -16 260v418h-156z M266 1202v254h252v-254h-252zM678 1202v254h252v-254h-252z"/>
<glyph unicode="ý" horiz-adv-x="1130" d="M453 1172l272 266h272l-317 -266h-227zM-4 879v145h530v-145h-131l103 -306q49 -156 55 -174q6 -25 22.5 -86t24.5 -94q37 143 59 215q25 78 46 139l106 306h-127v145h453v-145h-160l-315 -897q-6 -18 -23 -60q-61 -172 -111 -231q-111 -137 -354 -137q-10 0 -31.5 1 t-31.5 1v153q180 0 247 45q74 47 109 162l14 45l-319 918h-166z"/>
<glyph unicode="ÿ" horiz-adv-x="1130" d="M-4 879v145h530v-145h-131l103 -306q49 -156 55 -174q6 -25 22.5 -86t24.5 -94q37 143 59 215q25 78 46 139l106 306h-127v145h453v-145h-160l-315 -897q-6 -18 -23 -60q-61 -172 -111 -231q-111 -137 -354 -137q-10 0 -31.5 1t-31.5 1v153q180 0 247 45q74 47 109 162 l14 45l-319 918h-166zM233 1202v254h252v-254h-252zM645 1202v254h252v-254h-252z"/>
<glyph unicode="Œ" horiz-adv-x="1974" d="M72 713q0 477 290 667q145 94 320 95q209 0 358 -134q10 -8 19.5 -18t16.5 -18.5t9 -10.5v152h803v-342h-164v176h-446v-438h426v-166h-426v-508h471v213h162v-381h-826l-2 156q-43 -53 -114 -103q-125 -82 -287 -82q-252 2 -418 168q-192 197 -192 574zM319 729 q-2 -348 146 -496q92 -92 225 -92q78 0 143.5 34t93 66.5t48.5 67.5q86 150 86 416q0 299 -111 451q-98 129 -256 129q-195 0 -297 -189q-76 -147 -78 -387z"/>
<glyph unicode="œ" horiz-adv-x="1738" d="M76 500q0 104 30 200q51 156 168 251.5t275 95.5q168 0 264 -97q23 -20 70 -88q27 35 47 56.5t63 56.5t103.5 53.5t132.5 18.5q106 0 198 -48q66 -35 113 -91t69.5 -108t36 -114.5t15.5 -93.5t2 -62q0 -23 -4 -67h-670q0 -59 4 -84q16 -109 82 -178.5t174 -69.5 q90 0 145.5 47t75.5 96q10 23 19 62h162q-6 -70 -31 -121q-39 -86 -132 -162t-249 -76q-176 0 -291 101q-35 29 -74 84q-16 -29 -49 -64q-115 -121 -290 -121q-113 0 -209 54q-123 66 -186.5 194t-63.5 275zM309 518q0 -211 74 -307q59 -80 156 -80q109 2 170 97.5t61 283.5 q0 104 -22 193q-53 188 -203 188q-90 0 -146.5 -67.5t-72 -143.5t-17.5 -164zM995 618h445q0 172 -103 242q-47 33 -112.5 33t-128 -44t-88.5 -151q-11 -47 -13 -80z"/>
<glyph unicode="Ÿ" horiz-adv-x="1290" d="M0 1288v158h600v-158h-156l230 -497l235 497h-153v158h534v-158h-194l-338 -688v-442h180v-158h-592v158h180v436l-342 694h-184zM307 1614v254h256v-254h-256zM727 1614v254h256v-254h-256z"/>
<glyph unicode="ˆ" horiz-adv-x="555" d="M-266 1182l264 268h215l266 -268h-205l-168 159l-165 -159h-207z"/>
<glyph unicode="˜" horiz-adv-x="555" d="M-264 1239q2 6 8 22.5t10 22.5q10 29 26.5 57.5t65 63.5t107.5 35q57 0 190 -60q78 -35 113 -34q66 0 104 100l119 -47q-14 -47 -33 -84q-68 -125 -190 -125q-53 0 -207 65q-70 29 -94 29q-29 0 -41 -12q-10 -6 -18.5 -16.5t-14.5 -21.5t-10 -20.5t-6 -17.5l-4 -6z"/>
<glyph unicode=" " horiz-adv-x="960"/>
<glyph unicode=" " horiz-adv-x="1923"/>
<glyph unicode=" " horiz-adv-x="960"/>
<glyph unicode=" " horiz-adv-x="1923"/>
<glyph unicode=" " horiz-adv-x="641"/>
<glyph unicode=" " horiz-adv-x="479"/>
<glyph unicode=" " horiz-adv-x="319"/>
<glyph unicode=" " horiz-adv-x="319"/>
<glyph unicode=" " horiz-adv-x="239"/>
<glyph unicode=" " horiz-adv-x="382"/>
<glyph unicode=" " horiz-adv-x="106"/>
<glyph unicode="‐" horiz-adv-x="458" d="M2 500v116h455v-116h-455z"/>
<glyph unicode="‑" horiz-adv-x="458" d="M2 500v116h455v-116h-455z"/>
<glyph unicode="‒" horiz-adv-x="458" d="M2 500v116h455v-116h-455z"/>
<glyph unicode="–" horiz-adv-x="1087" d="M127 500v116h834v-116h-834z"/>
<glyph unicode="—" d="M84 631v168h940v-168h-940z"/>
<glyph unicode="‘" horiz-adv-x="468" d="M92 903v277l178 278h150l-205 -278h154v-277h-277z"/>
<glyph unicode="’" horiz-adv-x="468" d="M49 891l207 278h-156v277h279v-277l-178 -278h-152z"/>
<glyph unicode="‚" horiz-adv-x="468" d="M45 -279l207 279h-154v276h277v-276l-178 -279h-152z"/>
<glyph unicode="“" horiz-adv-x="788" d="M76 977v233l153 248h138l-181 -248h133v-233h-243zM449 977v233l153 248h137l-180 -248h133v-233h-243z"/>
<glyph unicode="”" horiz-adv-x="788" d="M51 965l180 247h-135v234h244v-234l-152 -247h-137zM424 965l180 247h-135v234h244v-234l-154 -247h-135z"/>
<glyph unicode="„" horiz-adv-x="788" d="M51 -250l180 250h-135v233h244v-233l-152 -250h-137zM424 -250l180 250h-135v233h244v-233l-154 -250h-135z"/>
<glyph unicode="•" horiz-adv-x="681" d="M74 723q0 49 20 98q33 78 100.5 123t151.5 45q111 0 185.5 -76.5t76.5 -189.5q0 -55 -22 -113q-70 -154 -240 -153q-113 0 -192.5 76.5t-79.5 189.5z"/>
<glyph unicode="…" horiz-adv-x="2048" d="M225 104q0 20 8 43q31 72 111 72q47 0 80 -33.5t33 -81.5q0 -49 -33 -82.5t-82 -33.5t-83 33.5t-34 82.5zM909 104q0 27 9 46q31 70 108 69q47 0 81 -33.5t34 -81.5q0 -49 -34 -82.5t-83 -33.5q-47 0 -81 33.5t-34 82.5zM1591 104q0 47 35 81t82 34q49 0 82 -33.5 t33 -81.5q0 -49 -33 -82.5t-82 -33.5t-83 33.5t-34 82.5z"/>
<glyph unicode=" " horiz-adv-x="382"/>
<glyph unicode="‹" horiz-adv-x="1024" d="M0 635v176l1024 496v-179l-821 -405l821 -406v-178z"/>
<glyph unicode="›" horiz-adv-x="1024" d="M0 139v178l821 406l-821 405v179l1024 -496v-176z"/>
<glyph unicode="⁄" horiz-adv-x="256" d="M-371 0l822 1411h155l-823 -1411h-154z"/>
<glyph unicode=" " horiz-adv-x="479"/>
<glyph unicode="™" horiz-adv-x="1579" d="M49 1264q2 31 5 91t5 91q35 0 106 -1t107 -1q121 -2 365 2q4 -119 10 -182h-72q-27 80 -51 94q-16 12 -55 12h-51v-440q0 -66 12 -76q8 -8 39 -12l41 -4l-2 -72q-160 6 -322 0v72l35 4q23 0 39 8q18 12 19 80v440h-54q-33 0 -49 -8q-33 -18 -55 -98h-72zM692 766v72l23 2 q35 2 44 21.5t9 72.5v420l-8 6q-29 14 -58 14v72q43 -2 127 -2q12 0 37 1t35 1l199 -490l207 490h198v-72l-16 -2q-20 0 -31.5 -3t-21 -18.5t-9.5 -45.5v-424q0 -20 13 -31q10 -8 37 -10l16 -2v-72q-133 6 -162 4q-35 0 -104 -4v72h12q27 0 39 9t13 17t1 29v326l-188 -453 h-53l-189 457v-289q0 -70 17 -82q6 -6 47 -14h16v-72q-125 2 -250 0z"/>
<glyph unicode="" horiz-adv-x="1025" d="M0 1025h1025v-1025h-1025v1025z"/>
<glyph unicode="ﬁ" horiz-adv-x="1353" d="M59 0v147h158v723h-154v154h154v84v70q8 174 123 243q76 47 182 47q92 0 189 -43v-176q-86 57 -154 58q-63 0 -96 -50q-23 -35 -23 -155v-78h242v-154h-242v-723h187v-147h-566zM772 0v147h156v732h-156v145h379v-877h158v-147h-537zM893 1219v217h254v-217h-254z"/>
<glyph unicode="ﬂ" horiz-adv-x="1353" d="M59 0v147h158v723h-154v154h154v84v70q8 174 123 243q76 47 182 47q92 0 189 -43v-176q-86 57 -154 58q-63 0 -96 -50q-23 -35 -23 -155v-78h242v-154h-242v-723h187v-147h-566zM770 0v147h158v1160h-158v145h381v-1305h158v-147h-539z"/>
<glyph unicode="ﬃ" horiz-adv-x="2070" d="M1487 0v147h156v732h-156v145h379v-877h158v-147h-537zM1608 1219v217h254v-217h-254zM774 0v147h158v723h-154v154h154v84v70q8 174 123 243q76 47 182 47q92 0 189 -43v-176q-86 57 -154 58q-63 0 -96 -50q-23 -35 -23 -155v-78h242v-154h-242v-723h187v-147h-566z M59 0v147h158v723h-154v154h154v84v70q8 174 123 243q76 47 182 47q92 0 189 -43v-176q-86 57 -154 58q-63 0 -96 -50q-23 -35 -23 -155v-78h242v-154h-242v-723h187v-147h-566z"/>
<glyph unicode="ﬄ" horiz-adv-x="2070" d="M1485 0v147h158v1160h-158v145h381v-1305h158v-147h-539zM774 0v147h158v723h-154v154h154v84v70q8 174 123 243q76 47 182 47q92 0 189 -43v-176q-86 57 -154 58q-63 0 -96 -50q-23 -35 -23 -155v-78h242v-154h-242v-723h187v-147h-566zM59 0v147h158v723h-154v154h154 v84v70q8 174 123 243q76 47 182 47q92 0 189 -43v-176q-86 57 -154 58q-63 0 -96 -50q-23 -35 -23 -155v-78h242v-154h-242v-723h187v-147h-566z"/>
</font>
</defs>
</svg>
