<?xml version="1.0" encoding="utf-8"?>
<!-- Generator: Adobe Illustrator 15.0.0, SVG Export Plug-In  -->
<!DOCTYPE svg PUBLIC "-//W3C//DTD SVG 1.0//EN" "http://www.w3.org/TR/2001/REC-SVG-20010904/DTD/svg10.dtd" [
	<!ENTITY ns_flows "http://ns.adobe.com/Flows/1.0/">
]>
<svg version="1.0"
	 xmlns="http://www.w3.org/2000/svg" xmlns:xlink="http://www.w3.org/1999/xlink" xmlns:a="http://ns.adobe.com/AdobeSVGViewerExtensions/3.0/"
	 x="0px" y="0px" width="640px" height="254px" viewBox="0 0 640 254" overflow="visible" enable-background="new 0 0 640 254"
	 xml:space="preserve">
<defs>
</defs>
<rect fill="#0085C8" width="640" height="254"/>
<path fill="#FFFFFF" d="M58.6,78L52,76.7l-6.3,18c0.7,0.2,1.5,0.1,2.2-0.3l30.4-17.6c0.7-0.4,1.1-1,1.3-1.7l-18.8-3.5L58.6,78z"/>
<path fill="#FFFFFF" d="M65.8,51.1c-0.7-0.2-1.5-0.1-2.2,0.3L33.2,69c-0.7,0.4-1.1,1-1.3,1.7l25.4,4.7L65.8,51.1z"/>
<polygon fill="#FFFFFF" points="31.9,72.7 44.1,93.8 50.3,76.3 "/>
<polygon fill="#FFFFFF" points="61.3,70 79.6,73.3 67.4,52.2 "/>
<path id="Facebook_1_" fill="#FFFFFF" d="M155.9,59.4c0,1.1,0,6.1,0,6.1h-4.5v7.4h4.5V95h9.2V72.9h6.1c0,0,0.6-3.6,0.9-7.5
	c-0.8,0-7,0-7,0s0-4.3,0-5.1c0-0.8,1-1.8,2-1.8c1,0,3.1,0,5,0c0-1,0-4.5,0-7.7c-2.6,0-5.5,0-6.8,0C155.6,50.8,155.9,58.3,155.9,59.4
	z"/>
<path fill="#FFFFFF" d="M279.2,52.5h-9.8c-4.4,0-7.4,1-10.1,3.2c-2.1,1.8-3.4,4.5-3.4,7.2c0,4.1,3.1,8.4,8.8,8.4
	c0.6,0,1.2-0.1,1.7-0.1l-0.1,0.2c-0.2,0.6-0.4,1.1-0.4,1.9c0,1.6,0.8,2.6,1.5,3.5l0.1,0.1l-0.2,0c-2.4,0.2-6.8,0.5-10,2.4
	c-3.8,2.3-4.1,5.6-4.1,6.5c0,3.8,3.5,7.6,11.5,7.6c9.2,0,14-5.1,14-10.1c0-3.7-2.2-5.5-4.5-7.5l-1.9-1.5c-0.6-0.5-1.4-1.1-1.4-2.3
	c0-1.1,0.8-1.9,1.4-2.5l0.1-0.1c2.1-1.7,4.5-3.5,4.5-7.6c0-4.1-2.6-6.2-3.8-7.2h3.2c0,0,0.1,0,0.1,0l2.8-1.8
	c0.1-0.1,0.1-0.1,0.1-0.2C279.4,52.5,279.3,52.5,279.2,52.5z M267.4,91.2c-5.6,0-9.4-2.6-9.4-6.5c0-2.5,1.5-4.4,4.6-5.5
	c2.4-0.8,5.6-0.9,5.6-0.9c0.5,0,0.8,0,1.2,0.1c3.9,2.8,5.8,4.3,5.8,7.1C275.2,89,272.2,91.2,267.4,91.2z M267.3,69.7
	c-4.7,0-6.7-6.2-6.7-9.5c0-1.7,0.4-3,1.2-4c0.9-1.1,2.3-1.8,3.7-1.8c4.3,0,6.7,5.8,6.7,9.8c0,0.6,0,2.6-1.3,3.9
	C270.1,69.1,268.6,69.7,267.3,69.7z"/>
<path fill="#FFFFFF" d="M292.9,71.6h-5.1v-5.1c0-0.1-0.1-0.2-0.2-0.2h-2.2c-0.1,0-0.2,0.1-0.2,0.2v5.1H280c-0.1,0-0.2,0.1-0.2,0.2
	v2.2c0,0.1,0.1,0.2,0.2,0.2h5.1v5.2c0,0.1,0.1,0.2,0.2,0.2h2.2c0.1,0,0.2-0.1,0.2-0.2v-5.2h5.1c0.1,0,0.2-0.1,0.2-0.2v-2.2
	C293.1,71.7,293,71.6,292.9,71.6z"/>
<path fill="#FFFFFF" d="M393.9,60.2c2.1-1.3,3.4-3,4.1-5.2c-2,1.1-4,1.8-6,2.2c-1.8-1.9-4.1-2.9-6.8-2.9c-2.7,0-4.9,0.9-6.8,2.8
	c-1.8,1.8-2.8,4.1-2.8,6.7c0,0.8,0.1,1.5,0.3,2.1c-7.9-0.3-14.4-3.5-19.5-9.8c-0.9,1.5-1.3,3.1-1.3,4.7c0,3.3,1.4,6,4.2,7.9
	c-1.6-0.1-3-0.5-4.2-1.2c0,2.4,0.7,4.4,2.1,6.1c1.4,1.7,3.2,2.8,5.4,3.3c-0.8,0.2-1.6,0.3-2.5,0.3c-0.8,0-1.4-0.1-1.7-0.2
	c0.6,1.9,1.7,3.5,3.3,4.7c1.6,1.2,3.4,1.8,5.5,1.9c-3.4,2.7-7.3,4-11.7,4c-1.1,0-1.8,0-2.3-0.1c4.3,2.8,9.2,4.2,14.5,4.2
	c5.5,0,10.3-1.4,14.5-4.2c4.2-2.8,7.3-6.2,9.3-10.2c2-4,3-8.2,3-12.5v-1.2c1.9-1.5,3.5-3.1,4.7-4.9
	C397.5,59.4,395.7,59.9,393.9,60.2z"/>
<path fill="#FFFFFF" d="M501.7,63.2c-0.5-2.2-2.3-3.8-4.5-4.1c-5.1-0.6-10.3-0.6-15.5-0.6c-5.2,0-10.4,0-15.5,0.6
	c-2.2,0.2-4,1.9-4.5,4.1c-0.7,3.1-0.7,6.6-0.7,9.8c0,3.2,0,6.6,0.7,9.8c0.5,2.2,2.3,3.8,4.5,4.1c5.1,0.6,10.3,0.6,15.5,0.6
	c5.2,0,10.4,0,15.5-0.6c2.2-0.2,4-1.9,4.5-4.1c0.7-3.1,0.7-6.6,0.7-9.8S502.4,66.3,501.7,63.2z M476.3,79.4c0-4.6,0-9.1,0-13.7
	c4.4,2.3,8.7,4.6,13.2,6.9C485.1,74.8,480.7,77.1,476.3,79.4z"/>
<path id="LinkedIn_1_" fill="#FFFFFF" d="M604.4,76.8v13.1h-7.6V77.7c0-3.1-1.1-5.2-3.8-5.2c-2.1,0-3.3,1.4-3.9,2.8
	c-0.2,0.5-0.3,1.2-0.3,1.9v12.8h-7.6c0,0,0.1-20.7,0-22.8h7.6v3.2c0,0,0,0.1-0.1,0.1h0.1v-0.1c1-1.6,2.8-3.8,6.8-3.8
	C600.7,66.5,604.4,69.8,604.4,76.8z M573.3,56c-2.6,0-4.3,1.7-4.3,3.9c0,2.2,1.7,3.9,4.2,3.9h0c2.6,0,4.3-1.8,4.3-3.9
	C577.5,57.7,575.9,56,573.3,56z M569.5,89.9h7.6V67h-7.6V89.9z"/>
<path fill="#FFFFFF" d="M58.5,171.3v-9.5h-6.1c-0.1,0.4-0.2,0.8-0.2,1.2c-0.1,0.2-0.1,0.4-0.1,0.6c-0.6,3.5-2.5,6-5.6,7.3
	c-0.9,0.4-1.8,0.5-2.7,0.4v7.7h4.5c0.1,10.8,0.1,16.3,0.1,16.6c0,0.2,0,0.4,0,0.6c0.6,4.7,3,7.5,7.4,8.6c1.8,0.5,3.7,0.7,5.6,0.7
	c2.5-0.1,4.9-0.5,7.3-1.3v-9c-1.4,0.4-2.7,0.8-3.8,1.1c-2.2,0.6-4,0.2-5.5-1.2c-0.1-0.2-0.4-0.5-0.4-0.8c-0.2-1.1-0.3-2.3-0.3-3.5
	v-12h9.8v-7.7H58.5z"/>
<path fill="#FFFFFF" d="M180.2,173.6c-1.2-9-10.2-13.6-19.8-12.5c-7.6,0.8-15.1,7-15.4,15.7c-0.2,5.3,1.3,9.3,6.4,10.5
	c2.2-3.9-0.7-4.7-1.2-7.6c-1.9-11.5,13.3-19.4,21.2-11.3c5.5,5.6,1.9,22.7-7,20.9c-8.5-1.7,4.1-15.3-2.6-18c-5.5-2.2-8.4,6.7-5.8,11
	c-1.5,7.5-4.8,14.6-3.5,24.1c4.3-3.1,5.8-9.1,7-15.4c2.2,1.3,3.3,2.7,6.1,2.9C175.9,194.7,181.6,183.8,180.2,173.6z"/>
<path fill="#FFFFFF" d="M254.4,162.7h31.2c3,0,5.4,2.2,5.4,5.4v31.2c0,3.2-2.4,5.4-5.4,5.4h-31.2c-3,0-5.4-2.2-5.4-5.4v-31.2
	C249,164.9,251.4,162.7,254.4,162.7L254.4,162.7z M279.6,167.4c-1,0-1.9,0.8-1.9,1.9v4.5c0,1,0.9,1.9,1.9,1.9h4.7
	c1,0,1.9-0.9,1.9-1.9v-4.5c0-1-0.9-1.9-1.9-1.9H279.6L279.6,167.4z M286.2,180.5h-3.7c0.3,1.1,0.5,2.4,0.5,3.6
	c0,7-5.8,12.6-13.1,12.6s-13.1-5.7-13.1-12.6c0-1.3,0.2-2.5,0.5-3.6h-3.9v17.7c0,0.9,0.8,1.7,1.7,1.7h29.2c0.9,0,1.7-0.8,1.7-1.7
	V180.5L286.2,180.5z M270,175.4c-4.7,0-8.4,3.7-8.4,8.2s3.8,8.2,8.4,8.2s8.4-3.7,8.4-8.2S274.7,175.4,270,175.4z"/>
<path fill-rule="evenodd" clip-rule="evenodd" fill="#FFFFFF" d="M387.8,164.1c0.1,0,0.1,0,0.2,0c0,13,0,26,0,39c-2.7,0-5.4,0-8.1,0
	c0-1,0-2,0-3c-1.6,1.3-3.2,2.4-5.7,2.9c-8.1,1.5-13.9-3.5-15.9-9.5c-1.6-5-0.1-10.3,2.4-13.5c2.6-3.2,6.2-5.8,11.8-5.5
	c3.2,0.2,5.4,1.5,7.1,3.4c0-4.1,0-8.1,0-12.2C382.4,165.3,385.1,164.7,387.8,164.1z M366.1,188.4c-0.2,4.4,3.3,7.4,7.3,7.3
	c5.2-0.1,8.5-6.4,5.4-11c-1.2-1.7-3.6-3.2-6.8-2.8C368.8,182.5,366.3,184.8,366.1,188.4z"/>
</svg>
